G04 #@! TF.GenerationSoftware,KiCad,Pcbnew,(5.1.0)-1*
G04 #@! TF.CreationDate,2021-02-28T15:06:35+01:00*
G04 #@! TF.ProjectId,Atari simm expansion PLCC,41746172-6920-4736-996d-6d2065787061,rev?*
G04 #@! TF.SameCoordinates,Original*
G04 #@! TF.FileFunction,Copper,L2,Bot*
G04 #@! TF.FilePolarity,Positive*
%FSLAX46Y46*%
G04 Gerber Fmt 4.6, Leading zero omitted, Abs format (unit mm)*
G04 Created by KiCad (PCBNEW (5.1.0)-1) date 2021-02-28 15:06:35*
%MOMM*%
%LPD*%
G04 APERTURE LIST*
%ADD10O,1.700000X1.700000*%
%ADD11R,1.700000X1.700000*%
%ADD12O,1.350000X1.350000*%
%ADD13R,1.350000X1.350000*%
%ADD14O,1.600000X1.600000*%
%ADD15R,1.600000X1.600000*%
%ADD16C,0.800000*%
%ADD17C,1.100000*%
%ADD18C,0.900000*%
%ADD19C,1.000000*%
%ADD20C,0.812800*%
%ADD21C,0.254000*%
%ADD22C,0.406400*%
%ADD23C,1.016000*%
%ADD24C,0.250000*%
G04 APERTURE END LIST*
D10*
X213280000Y-113434600D03*
X210740000Y-113434600D03*
X208200000Y-113434600D03*
X205660000Y-113434600D03*
X203120000Y-113434600D03*
X200580000Y-113434600D03*
X198040000Y-113434600D03*
X195500000Y-113434600D03*
X192960000Y-113434600D03*
D11*
X190420000Y-113434600D03*
D12*
X142927320Y-85633040D03*
X144927320Y-85633040D03*
X142927320Y-87633040D03*
X144927320Y-87633040D03*
X142927320Y-89633040D03*
X144927320Y-89633040D03*
X142927320Y-91633040D03*
D13*
X144927320Y-91633040D03*
D10*
X167563800Y-110312200D03*
X165023800Y-110312200D03*
X162483800Y-110312200D03*
X159943800Y-110312200D03*
X157403800Y-110312200D03*
X154863800Y-110312200D03*
X152323800Y-110312200D03*
D11*
X149783800Y-110312200D03*
D10*
X137820400Y-108534200D03*
X140360400Y-108534200D03*
X137820400Y-111074200D03*
D11*
X140360400Y-111074200D03*
D14*
X190420000Y-108380000D03*
X213280000Y-116000000D03*
X192960000Y-108380000D03*
X210740000Y-116000000D03*
X195500000Y-108380000D03*
X208200000Y-116000000D03*
X198040000Y-108380000D03*
X205660000Y-116000000D03*
X200580000Y-108380000D03*
X203120000Y-116000000D03*
X203120000Y-108380000D03*
X200580000Y-116000000D03*
X205660000Y-108380000D03*
X198040000Y-116000000D03*
X208200000Y-108380000D03*
X195500000Y-116000000D03*
X210740000Y-108380000D03*
X192960000Y-116000000D03*
X213280000Y-108380000D03*
D15*
X190420000Y-116000000D03*
D10*
X213280000Y-105814600D03*
X210740000Y-105814600D03*
X208200000Y-105814600D03*
X205660000Y-105814600D03*
X203120000Y-105814600D03*
X200580000Y-105814600D03*
X198040000Y-105814600D03*
X195500000Y-105814600D03*
X192960000Y-105814600D03*
D11*
X190420000Y-105814600D03*
D10*
X172680000Y-116434600D03*
X170140000Y-116434600D03*
X167600000Y-116434600D03*
X165060000Y-116434600D03*
X162520000Y-116434600D03*
X159980000Y-116434600D03*
X157440000Y-116434600D03*
X154900000Y-116434600D03*
X152360000Y-116434600D03*
D11*
X149820000Y-116434600D03*
D10*
X172680000Y-124054600D03*
X170140000Y-124054600D03*
X167600000Y-124054600D03*
X165060000Y-124054600D03*
X162520000Y-124054600D03*
X159980000Y-124054600D03*
X157440000Y-124054600D03*
X154900000Y-124054600D03*
X152360000Y-124054600D03*
D11*
X149820000Y-124054600D03*
D10*
X126320000Y-85680000D03*
X123780000Y-85680000D03*
X121240000Y-85680000D03*
X118700000Y-85680000D03*
X116160000Y-85680000D03*
X113620000Y-85680000D03*
X111080000Y-85680000D03*
X108540000Y-85680000D03*
D11*
X106000000Y-85680000D03*
D10*
X126320000Y-93300000D03*
X123780000Y-93300000D03*
X121240000Y-93300000D03*
X118700000Y-93300000D03*
X116160000Y-93300000D03*
X113620000Y-93300000D03*
X111080000Y-93300000D03*
X108540000Y-93300000D03*
D11*
X106000000Y-93300000D03*
D10*
X126320000Y-73000000D03*
X123780000Y-73000000D03*
X121240000Y-73000000D03*
X118700000Y-73000000D03*
X116160000Y-73000000D03*
X113620000Y-73000000D03*
X111080000Y-73000000D03*
X108540000Y-73000000D03*
D11*
X106000000Y-73000000D03*
D10*
X126320000Y-80620000D03*
X123780000Y-80620000D03*
X121240000Y-80620000D03*
X118700000Y-80620000D03*
X116160000Y-80620000D03*
X113620000Y-80620000D03*
X111080000Y-80620000D03*
X108540000Y-80620000D03*
D11*
X106000000Y-80620000D03*
D16*
X120675400Y-102158800D03*
X106400600Y-77622400D03*
X105511600Y-77622400D03*
X127482600Y-102412800D03*
X126212600Y-102362000D03*
X130515360Y-92837000D03*
X129473960Y-89890600D03*
X119405400Y-102362000D03*
X140182600Y-102311200D03*
X118135400Y-102336600D03*
X138912600Y-102311200D03*
X116865400Y-102336600D03*
X137642600Y-102336600D03*
X115595400Y-102311200D03*
X136372600Y-102336600D03*
D17*
X104978200Y-111887000D03*
D18*
X116332000Y-111480600D03*
X105435400Y-95148400D03*
X105441200Y-98774800D03*
D16*
X124917200Y-96901000D03*
D17*
X165074600Y-119888000D03*
X163804600Y-119862600D03*
D18*
X134696200Y-112801400D03*
D19*
X140573760Y-91313000D03*
X144160240Y-99430840D03*
X123494800Y-101655880D03*
D16*
X123393200Y-103149400D03*
D17*
X144119600Y-97078800D03*
X144094200Y-94462600D03*
X146481800Y-94411800D03*
X146481800Y-97104200D03*
X146532600Y-99415600D03*
X144170400Y-106299000D03*
D19*
X113500000Y-75500000D03*
X118500000Y-75500000D03*
X123500000Y-75500000D03*
X128000000Y-75500000D03*
D17*
X105867200Y-89357200D03*
D16*
X105867200Y-83083400D03*
D17*
X109400000Y-110400000D03*
X112800000Y-110400000D03*
D18*
X122200000Y-109200000D03*
X125200000Y-109200000D03*
X127800000Y-109200000D03*
D19*
X133172200Y-111379000D03*
D17*
X146500000Y-102750000D03*
X134750000Y-87500000D03*
X104978200Y-125171200D03*
X154203400Y-119761000D03*
X155473400Y-119761000D03*
D16*
X123850400Y-96875600D03*
D18*
X105441200Y-100031000D03*
D17*
X105003600Y-127127000D03*
X104978200Y-113436400D03*
D18*
X116332000Y-109982000D03*
X130073400Y-111810800D03*
X130073400Y-110667800D03*
D16*
X108000800Y-102336600D03*
X128752600Y-102412800D03*
X122367040Y-84074000D03*
X126420880Y-82529680D03*
X106705400Y-102336600D03*
X105435400Y-102336600D03*
X112293400Y-91922600D03*
X119075200Y-88315800D03*
X116509800Y-90017600D03*
X114630200Y-123266200D03*
X124993400Y-111836200D03*
X135001000Y-99517200D03*
X111683800Y-104140000D03*
X132257800Y-107645200D03*
X108127800Y-127177800D03*
X109702600Y-125399800D03*
X112369600Y-123113800D03*
X110769400Y-120345200D03*
X163804600Y-114833400D03*
X113284000Y-123698000D03*
X178054000Y-110871000D03*
X111937800Y-124155200D03*
X180467000Y-110871000D03*
X110667800Y-124561600D03*
X120599200Y-118491000D03*
X115747802Y-118541800D03*
X114477798Y-118541800D03*
X111937798Y-118541800D03*
X110744000Y-119049800D03*
X123723400Y-111810800D03*
D18*
X168935400Y-112344200D03*
D16*
X118795800Y-116357400D03*
X127533400Y-111861600D03*
X112522000Y-111836200D03*
X127533400Y-114985800D03*
D18*
X168884600Y-114960400D03*
X186232800Y-114122200D03*
D16*
X126263400Y-115011200D03*
X111252000Y-111810800D03*
D18*
X187909200Y-115214400D03*
D16*
X108686600Y-111760000D03*
D18*
X184810400Y-114096800D03*
D16*
X136702800Y-89509600D03*
X109245400Y-102311200D03*
X131419600Y-106908600D03*
X130058160Y-102392480D03*
X110109000Y-122529600D03*
X122529600Y-115468400D03*
X119075200Y-89662000D03*
X117398800Y-90957400D03*
X131277360Y-102321360D03*
X130271520Y-94960440D03*
X127812800Y-117170200D03*
X120040400Y-116332000D03*
X113207800Y-105156000D03*
X132359400Y-109905800D03*
X128676400Y-118008400D03*
X120675400Y-117373400D03*
X107873800Y-116713000D03*
X123825000Y-115468400D03*
D20*
X126320000Y-94502081D02*
X126320000Y-93300000D01*
X125216481Y-95605600D02*
X126320000Y-94502081D01*
X123393200Y-95605600D02*
X125216481Y-95605600D01*
X122021600Y-96977200D02*
X123393200Y-95605600D01*
X120675400Y-102158800D02*
X122021600Y-100812600D01*
X122021600Y-100812600D02*
X122021600Y-96977200D01*
X123322400Y-77622400D02*
X126320000Y-80620000D01*
X105511600Y-77622400D02*
X123322400Y-77622400D01*
D21*
X111929999Y-81469999D02*
X111080000Y-80620000D01*
X127482600Y-100203000D02*
X128193800Y-99491800D01*
X127482600Y-102412800D02*
X127482600Y-100203000D01*
X128193800Y-99491800D02*
X128193800Y-85368404D01*
X128193800Y-85368404D02*
X124918196Y-82092800D01*
X124918196Y-82092800D02*
X112552800Y-82092800D01*
X112552800Y-82092800D02*
X111929999Y-81469999D01*
X109389999Y-81469999D02*
X108540000Y-80620000D01*
X110698600Y-82778600D02*
X109389999Y-81469999D01*
X124114560Y-82778600D02*
X110698600Y-82778600D01*
X126212600Y-100812600D02*
X127685800Y-99339400D01*
X126212600Y-102362000D02*
X126212600Y-100812600D01*
X127685800Y-99339400D02*
X127685800Y-89992200D01*
X127685800Y-89992200D02*
X125059440Y-87365840D01*
X125059440Y-87365840D02*
X125059440Y-83723480D01*
X125059440Y-83723480D02*
X124114560Y-82778600D01*
X130115361Y-92437001D02*
X130515360Y-92837000D01*
X129138680Y-91460320D02*
X130115361Y-92437001D01*
X129138680Y-91460320D02*
X129138680Y-90225880D01*
X129138680Y-90225880D02*
X129473960Y-89890600D01*
X138436380Y-100564980D02*
X140182600Y-102311200D01*
X135564686Y-100564980D02*
X138436380Y-100564980D01*
X119405400Y-103581200D02*
X120526190Y-104701990D01*
X119405400Y-102362000D02*
X119405400Y-103581200D01*
X120526190Y-104701990D02*
X132924582Y-104701990D01*
X132924582Y-104701990D02*
X134626380Y-103000192D01*
X134626380Y-103000192D02*
X134626380Y-101503286D01*
X134626380Y-101503286D02*
X135564686Y-100564980D01*
X123780000Y-90785400D02*
X123780000Y-85680000D01*
X125044200Y-93963760D02*
X125044200Y-92049600D01*
X125044200Y-92049600D02*
X123780000Y-90785400D01*
X119405400Y-102362000D02*
X119405400Y-101708667D01*
X121104010Y-100010057D02*
X121104010Y-96497790D01*
X119405400Y-101708667D02*
X121104010Y-100010057D01*
X121104010Y-96497790D02*
X122834400Y-94767400D01*
X122834400Y-94767400D02*
X124240560Y-94767400D01*
X124240560Y-94767400D02*
X125044200Y-93963760D01*
X138512601Y-101911201D02*
X138912600Y-102311200D01*
X118135400Y-103632000D02*
X119659400Y-105156000D01*
X118135400Y-102336600D02*
X118135400Y-103632000D01*
X119659400Y-105156000D02*
X133112638Y-105156000D01*
X137620391Y-101018991D02*
X138512601Y-101911201D01*
X133112638Y-105156000D02*
X135080390Y-103188248D01*
X135752743Y-101018991D02*
X137620391Y-101018991D01*
X135080390Y-103188248D02*
X135080390Y-101691344D01*
X135080390Y-101691344D02*
X135752743Y-101018991D01*
X121240000Y-90785400D02*
X121240000Y-85680000D01*
X118135400Y-102057200D02*
X120523000Y-99669600D01*
X118135400Y-102336600D02*
X118135400Y-102057200D01*
X120523000Y-96164400D02*
X122504200Y-94183200D01*
X120523000Y-99669600D02*
X120523000Y-96164400D01*
X122504200Y-94183200D02*
X122504200Y-92049600D01*
X122504200Y-92049600D02*
X121240000Y-90785400D01*
X118700000Y-86696000D02*
X118700000Y-85680000D01*
X119964200Y-87960200D02*
X118700000Y-86696000D01*
X116865400Y-102336600D02*
X119964200Y-99237800D01*
X119964200Y-99237800D02*
X119964200Y-87960200D01*
X137242601Y-101936601D02*
X137642600Y-102336600D01*
X136779002Y-101473002D02*
X137242601Y-101936601D01*
X116865400Y-104165400D02*
X118310010Y-105610010D01*
X116865400Y-102336600D02*
X116865400Y-104165400D01*
X118310010Y-105610010D02*
X133300696Y-105610010D01*
X133300696Y-105610010D02*
X135534401Y-103376305D01*
X135940800Y-101473002D02*
X136779002Y-101473002D01*
X135534401Y-103376305D02*
X135534401Y-101879401D01*
X135534401Y-101879401D02*
X135940800Y-101473002D01*
X115493800Y-86346200D02*
X116160000Y-85680000D01*
X115493800Y-90474800D02*
X115493800Y-86346200D01*
X117424200Y-92405200D02*
X115493800Y-90474800D01*
X117424200Y-100431600D02*
X117424200Y-92405200D01*
X115595400Y-102311200D02*
X115595400Y-102260400D01*
X115595400Y-102260400D02*
X117424200Y-100431600D01*
X136372600Y-103251000D02*
X136372600Y-102336600D01*
X133553200Y-106070400D02*
X136372600Y-103251000D01*
X117551200Y-106070400D02*
X133553200Y-106070400D01*
X115595400Y-102311200D02*
X115595400Y-104114600D01*
X115595400Y-104114600D02*
X117551200Y-106070400D01*
D22*
X165060000Y-124054600D02*
X167600000Y-124054600D01*
X167600000Y-124054600D02*
X170140000Y-124054600D01*
X170140000Y-124054600D02*
X172680000Y-124054600D01*
X170140000Y-116434600D02*
X172680000Y-116434600D01*
D20*
X104337200Y-73000000D02*
X106000000Y-73000000D01*
X104038400Y-73298800D02*
X104337200Y-73000000D01*
X104978200Y-104546400D02*
X104038400Y-103606600D01*
X104134200Y-85680000D02*
X106000000Y-85680000D01*
X104038400Y-85775800D02*
X104134200Y-85680000D01*
X104038400Y-85775800D02*
X104038400Y-73298800D01*
X104978200Y-111887000D02*
X104978200Y-110007400D01*
X104978200Y-110007400D02*
X104978200Y-104546400D01*
X104089200Y-95148400D02*
X104038400Y-95199200D01*
X105435400Y-95148400D02*
X104089200Y-95148400D01*
X104038400Y-96799400D02*
X104038400Y-95199200D01*
X104038400Y-95199200D02*
X104038400Y-85775800D01*
X104044200Y-98774800D02*
X105441200Y-98774800D01*
X104038400Y-98780600D02*
X104044200Y-98774800D01*
X104038400Y-98780600D02*
X104038400Y-96799400D01*
X104038400Y-103606600D02*
X104038400Y-98780600D01*
X124917200Y-96901000D02*
X124917200Y-100152200D01*
X124917200Y-100152200D02*
X123494800Y-101574600D01*
X123494800Y-101574600D02*
X123494800Y-101655880D01*
X104978200Y-111887000D02*
X104978200Y-113436400D01*
D23*
X155473400Y-119761000D02*
X154203400Y-119761000D01*
X165074600Y-119888000D02*
X163830000Y-119888000D01*
X163703000Y-119761000D02*
X155473400Y-119761000D01*
X163804600Y-119862600D02*
X163703000Y-119761000D01*
D20*
X104978200Y-113436400D02*
X104978200Y-125171200D01*
D21*
X108000800Y-98919200D02*
X113620000Y-93300000D01*
X108000800Y-102336600D02*
X108000800Y-98919200D01*
X114469999Y-92450001D02*
X113620000Y-93300000D01*
X114884200Y-92035800D02*
X114469999Y-92450001D01*
X114884200Y-92035800D02*
X114884200Y-85013800D01*
X114884200Y-85013800D02*
X115824000Y-84074000D01*
X128752600Y-102412800D02*
X128905000Y-102260400D01*
X115824000Y-84074000D02*
X122367040Y-84074000D01*
X126820879Y-82929679D02*
X126420880Y-82529680D01*
X128676400Y-84785200D02*
X126820879Y-82929679D01*
X128752600Y-102412800D02*
X128676400Y-102336600D01*
X128676400Y-102336600D02*
X128676400Y-84785200D01*
X111080000Y-95091800D02*
X111080000Y-93300000D01*
X107442000Y-98729800D02*
X111080000Y-95091800D01*
X107442000Y-100990400D02*
X107442000Y-98729800D01*
X106705400Y-102336600D02*
X106705400Y-101727000D01*
X106705400Y-101727000D02*
X107442000Y-100990400D01*
X108540000Y-94304400D02*
X108540000Y-93300000D01*
X108540000Y-96819000D02*
X108540000Y-94304400D01*
X106883200Y-98475800D02*
X108540000Y-96819000D01*
X106883200Y-100323115D02*
X106883200Y-98475800D01*
X105435400Y-102336600D02*
X105435400Y-101770915D01*
X105435400Y-101770915D02*
X106883200Y-100323115D01*
D24*
X106000000Y-92200000D02*
X106000000Y-93300000D01*
X106277400Y-91922600D02*
X106000000Y-92200000D01*
X112293400Y-91922600D02*
X106277400Y-91922600D01*
D21*
X119075200Y-88315800D02*
X117373400Y-90017600D01*
X117373400Y-90017600D02*
X116509800Y-90017600D01*
X162520000Y-124054600D02*
X159874211Y-121408811D01*
D24*
X159874211Y-121408811D02*
X159782989Y-121317589D01*
X159782989Y-121317589D02*
X148677629Y-121317589D01*
X115475285Y-122986800D02*
X115195885Y-123266200D01*
X115195885Y-123266200D02*
X114630200Y-123266200D01*
X148178408Y-121315590D02*
X146507199Y-122986799D01*
X146507199Y-122986799D02*
X115475285Y-122986800D01*
X148675629Y-121315589D02*
X148178408Y-121315590D01*
X148677629Y-121317589D02*
X148675629Y-121315589D01*
D22*
X208200000Y-113434600D02*
X208200000Y-116000000D01*
X205660000Y-113434600D02*
X205660000Y-116000000D01*
D21*
X111683800Y-104140000D02*
X113694600Y-104140000D01*
X113694600Y-104140000D02*
X116533019Y-106978420D01*
X116533019Y-106978420D02*
X130067020Y-106978420D01*
X130067020Y-106978420D02*
X131038600Y-107950000D01*
X131038600Y-107950000D02*
X131902200Y-107950000D01*
X131902200Y-107950000D02*
X131953000Y-107950000D01*
X131953000Y-107950000D02*
X132257800Y-107645200D01*
D24*
X109448600Y-127177800D02*
X108127800Y-127177800D01*
D21*
X150887800Y-125526800D02*
X152360000Y-124054600D01*
X116385665Y-125526800D02*
X150887800Y-125526800D01*
X115658656Y-126253809D02*
X116385665Y-125526800D01*
X110448791Y-126253809D02*
X115658656Y-126253809D01*
X109448600Y-127177800D02*
X109524800Y-127177800D01*
X109524800Y-127177800D02*
X110448791Y-126253809D01*
D24*
X109728000Y-125374400D02*
X109702600Y-125399800D01*
D21*
X148004839Y-124054600D02*
X149820000Y-124054600D01*
X110102599Y-125799799D02*
X115470599Y-125799799D01*
X109702600Y-125399800D02*
X110102599Y-125799799D01*
X115470599Y-125799799D02*
X115492790Y-125777609D01*
X116226199Y-125044200D02*
X147015239Y-125044200D01*
X115492790Y-125777609D02*
X116226199Y-125044200D01*
X147015239Y-125044200D02*
X148004839Y-124054600D01*
D22*
X213280000Y-105814600D02*
X213280000Y-108380000D01*
D21*
X213280000Y-109274600D02*
X213280000Y-108380000D01*
X210947000Y-111607600D02*
X213280000Y-109274600D01*
X188036200Y-116357400D02*
X188823600Y-115570000D01*
X188823600Y-115570000D02*
X188823600Y-112014000D01*
X176435468Y-116357400D02*
X188036200Y-116357400D01*
X174599600Y-121869200D02*
X174599600Y-118193268D01*
X173784601Y-122684199D02*
X174599600Y-121869200D01*
X174599600Y-118193268D02*
X176435468Y-116357400D01*
X112979200Y-122504200D02*
X146350560Y-122504200D01*
X189230000Y-111607600D02*
X210947000Y-111607600D01*
X146350560Y-122504200D02*
X148001560Y-120853200D01*
X188823600Y-112014000D02*
X189230000Y-111607600D01*
X148001560Y-120853200D02*
X162581002Y-120853200D01*
X112369600Y-123113800D02*
X112979200Y-122504200D01*
X162581002Y-120853200D02*
X164412001Y-122684199D01*
X164412001Y-122684199D02*
X173784601Y-122684199D01*
D22*
X210740000Y-105814600D02*
X210740000Y-108380000D01*
X208200000Y-105814600D02*
X208200000Y-108380000D01*
X205660000Y-105814600D02*
X205660000Y-108380000D01*
X203120000Y-105814600D02*
X203120000Y-108380000D01*
X200580000Y-105814600D02*
X200580000Y-108380000D01*
X198040000Y-105814600D02*
X198040000Y-108380000D01*
X192960000Y-105814600D02*
X192960000Y-108380000D01*
D21*
X163804600Y-117246400D02*
X163804600Y-114833400D01*
X163195000Y-117856000D02*
X163804600Y-117246400D01*
X154900000Y-116434600D02*
X156321400Y-117856000D01*
X156321400Y-117856000D02*
X163195000Y-117856000D01*
X111169399Y-120745199D02*
X110769400Y-120345200D01*
X154645464Y-116434600D02*
X151642884Y-119437180D01*
X154900000Y-116434600D02*
X154645464Y-116434600D01*
X151642884Y-119437180D02*
X134142468Y-119437180D01*
X134142468Y-119437180D02*
X132447049Y-121132599D01*
X132447049Y-121132599D02*
X111556799Y-121132599D01*
X111556799Y-121132599D02*
X111169399Y-120745199D01*
X159980000Y-124054600D02*
X157788222Y-121862822D01*
D24*
X113608370Y-124022370D02*
X113284000Y-123698000D01*
X157788222Y-121862822D02*
X157693000Y-121767600D01*
X157693000Y-121767600D02*
X148485580Y-121767600D01*
D21*
X113692400Y-124104400D02*
X113608370Y-124020370D01*
X115239800Y-124104400D02*
X113692400Y-124104400D01*
X115849400Y-123494800D02*
X115239800Y-124104400D01*
X146638438Y-123494800D02*
X115849400Y-123494800D01*
X148488400Y-121767600D02*
X148365638Y-121767600D01*
X148365638Y-121767600D02*
X146638438Y-123494800D01*
X157440000Y-124054600D02*
X155702233Y-122316833D01*
D24*
X176225200Y-109042200D02*
X178054000Y-110871000D01*
X157403800Y-110312200D02*
X158673800Y-109042200D01*
X158673800Y-109042200D02*
X176225200Y-109042200D01*
X155702233Y-122316833D02*
X155610200Y-122224800D01*
X155610200Y-122224800D02*
X148664790Y-122224800D01*
D21*
X112420400Y-124637800D02*
X111937800Y-124155200D01*
X115348466Y-124637800D02*
X112420400Y-124637800D01*
X115983466Y-124002800D02*
X115348466Y-124637800D01*
X146772504Y-124002800D02*
X115983466Y-124002800D01*
X148664790Y-122224800D02*
X148550504Y-122224800D01*
X148550504Y-122224800D02*
X146772504Y-124002800D01*
D24*
X178188191Y-108592191D02*
X180467000Y-110871000D01*
X154863800Y-110312200D02*
X156583809Y-108592191D01*
X156583809Y-108592191D02*
X178188191Y-108592191D01*
D21*
X111429800Y-125323600D02*
X110667800Y-124561600D01*
X153522210Y-122676810D02*
X148740561Y-122676810D01*
X154900000Y-124054600D02*
X153522210Y-122676810D01*
X148740561Y-122676810D02*
X146881171Y-124536200D01*
X146881171Y-124536200D02*
X116092133Y-124536200D01*
X116092133Y-124536200D02*
X115304733Y-125323600D01*
X115304733Y-125323600D02*
X111429800Y-125323600D01*
X120938970Y-118830770D02*
X120599200Y-118491000D01*
X131538548Y-118830770D02*
X120938970Y-118830770D01*
X133249918Y-117119400D02*
X131538548Y-118830770D01*
X164830400Y-113665000D02*
X148296467Y-113665000D01*
X167600000Y-116434600D02*
X164830400Y-113665000D01*
X148296467Y-113665000D02*
X146964400Y-114997067D01*
X146964400Y-114997067D02*
X146964400Y-116546468D01*
X146964400Y-116546468D02*
X146391468Y-117119400D01*
X146391468Y-117119400D02*
X133249918Y-117119400D01*
X116490781Y-119284779D02*
X116147801Y-118941799D01*
X131726603Y-119284779D02*
X116490781Y-119284779D01*
X133431592Y-117579790D02*
X131726603Y-119284779D01*
X116147801Y-118941799D02*
X115747802Y-118541800D01*
X160261590Y-114176190D02*
X148510610Y-114176190D01*
X162520000Y-116434600D02*
X160261590Y-114176190D01*
X148510610Y-114176190D02*
X147472400Y-115214400D01*
X147472400Y-115214400D02*
X147472400Y-116680532D01*
X147472400Y-116680532D02*
X146573143Y-117579789D01*
X146573143Y-117579789D02*
X133431592Y-117579790D01*
X114877797Y-118941799D02*
X114477798Y-118541800D01*
X131914660Y-119738790D02*
X115674788Y-119738790D01*
X133619650Y-118033800D02*
X131914660Y-119738790D01*
X158175600Y-114630200D02*
X148818600Y-114630200D01*
X159980000Y-116434600D02*
X158175600Y-114630200D01*
X148818600Y-114630200D02*
X147980400Y-115468400D01*
X147980400Y-115468400D02*
X147980400Y-116814600D01*
X147980400Y-116814600D02*
X146761200Y-118033800D01*
X115674788Y-119738790D02*
X114877797Y-118941799D01*
X146761200Y-118033800D02*
X133619650Y-118033800D01*
X156089611Y-115084211D02*
X151615789Y-115084211D01*
X113588798Y-120192800D02*
X112337797Y-118941799D01*
X112337797Y-118941799D02*
X111937798Y-118541800D01*
X132102714Y-120192800D02*
X113588798Y-120192800D01*
X151104600Y-117500400D02*
X150110811Y-118494189D01*
X151104600Y-115595400D02*
X151104600Y-117500400D01*
X151615789Y-115084211D02*
X151104600Y-115595400D01*
X150110811Y-118494189D02*
X133801324Y-118494190D01*
X133801324Y-118494190D02*
X132102714Y-120192800D01*
X157440000Y-116434600D02*
X156089611Y-115084211D01*
X111143999Y-119449799D02*
X110744000Y-119049800D01*
X112369600Y-120675400D02*
X111143999Y-119449799D01*
X152360000Y-116434600D02*
X152360000Y-117636681D01*
X133989382Y-118948200D02*
X132262182Y-120675400D01*
X132262182Y-120675400D02*
X112369600Y-120675400D01*
X152360000Y-117636681D02*
X151048481Y-118948200D01*
X151048481Y-118948200D02*
X133989382Y-118948200D01*
X165023800Y-110312200D02*
X167055800Y-112344200D01*
X167055800Y-112344200D02*
X168935400Y-112344200D01*
X123723400Y-112376485D02*
X123723400Y-111810800D01*
X124224515Y-112877600D02*
X123723400Y-112376485D01*
X125577600Y-112877600D02*
X124224515Y-112877600D01*
X125882400Y-112572800D02*
X125577600Y-112877600D01*
X125882400Y-111556800D02*
X125882400Y-112572800D01*
X126418990Y-111020210D02*
X125882400Y-111556800D01*
X152950602Y-108940600D02*
X151949866Y-108940600D01*
X165023800Y-110312200D02*
X163576000Y-111760000D01*
X128056544Y-111020210D02*
X126418990Y-111020210D01*
X153593800Y-111404400D02*
X153593800Y-109583798D01*
X163576000Y-111760000D02*
X153949400Y-111760000D01*
X128498600Y-112496600D02*
X128498600Y-111462266D01*
X151949866Y-108940600D02*
X151419657Y-108410390D01*
X151419657Y-108410390D02*
X148129610Y-108410390D01*
X145570590Y-113611010D02*
X129613010Y-113611010D01*
X148129610Y-108410390D02*
X147345400Y-109194600D01*
X153593800Y-109583798D02*
X152950602Y-108940600D01*
X129613010Y-113611010D02*
X128498600Y-112496600D01*
X147345400Y-109194600D02*
X147345400Y-111836200D01*
X147345400Y-111836200D02*
X145570590Y-113611010D01*
X153949400Y-111760000D02*
X153593800Y-111404400D01*
X128498600Y-111462266D02*
X128056544Y-111020210D01*
X118395801Y-116757399D02*
X118795800Y-116357400D01*
X110531636Y-117678200D02*
X117475000Y-117678200D01*
X188112400Y-113614200D02*
X186280410Y-115446190D01*
X188823600Y-111074200D02*
X188112400Y-111785400D01*
X151830943Y-119891189D02*
X134330526Y-119891190D01*
X194665600Y-111074200D02*
X188823600Y-111074200D01*
X186280410Y-115446190D02*
X176062542Y-115446191D01*
X109686797Y-118523039D02*
X110531636Y-117678200D01*
X117475000Y-117678200D02*
X118395801Y-116757399D01*
X195500000Y-107880000D02*
X195500000Y-110239800D01*
X188112400Y-111785400D02*
X188112400Y-113614200D01*
X195500000Y-110239800D02*
X194665600Y-111074200D01*
X132635106Y-121586610D02*
X110436010Y-121586610D01*
X176062542Y-115446191D02*
X173195532Y-118313200D01*
X173195532Y-118313200D02*
X153408932Y-118313200D01*
X110436010Y-121586610D02*
X109686797Y-120837397D01*
X153408932Y-118313200D02*
X151830943Y-119891189D01*
X134330526Y-119891190D02*
X132635106Y-121586610D01*
X109686797Y-120837397D02*
X109686797Y-118523039D01*
X152323800Y-109956600D02*
X152323800Y-110312200D01*
X151231600Y-108864400D02*
X152323800Y-109956600D01*
X148437600Y-108864400D02*
X151231600Y-108864400D01*
X127533400Y-112427285D02*
X129228315Y-114122200D01*
X127533400Y-111861600D02*
X127533400Y-112427285D01*
X129228315Y-114122200D02*
X145948400Y-114122200D01*
X145948400Y-114122200D02*
X147878800Y-112191800D01*
X147878800Y-112191800D02*
X147878800Y-109423200D01*
X147878800Y-109423200D02*
X148437600Y-108864400D01*
X126088790Y-113541190D02*
X127533400Y-114985800D01*
X118183010Y-113541190D02*
X126088790Y-113541190D01*
X116027200Y-115697000D02*
X118183010Y-113541190D01*
X113157000Y-115697000D02*
X116027200Y-115697000D01*
X112522000Y-111836200D02*
X112522000Y-115062000D01*
X112522000Y-115062000D02*
X113157000Y-115697000D01*
X152323800Y-111514281D02*
X152323800Y-110312200D01*
X153102919Y-112293400D02*
X152323800Y-111514281D01*
X166333336Y-113233200D02*
X165393536Y-112293400D01*
X194233800Y-107080800D02*
X194233800Y-110185200D01*
X165393536Y-112293400D02*
X153102919Y-112293400D01*
X195500000Y-105814600D02*
X194233800Y-107080800D01*
X193878200Y-110540800D02*
X188569600Y-110540800D01*
X188569600Y-110540800D02*
X185877200Y-113233200D01*
X194233800Y-110185200D02*
X193878200Y-110540800D01*
X185877200Y-113233200D02*
X166333336Y-113233200D01*
X168884600Y-114179378D02*
X168884600Y-114960400D01*
X168881411Y-114176189D02*
X168884600Y-114179378D01*
X185782801Y-114572199D02*
X186232800Y-114122200D01*
X185420000Y-114935000D02*
X185782801Y-114572199D01*
X170688000Y-114935000D02*
X185420000Y-114935000D01*
X168881411Y-114176189D02*
X169929189Y-114176189D01*
X169929189Y-114176189D02*
X170688000Y-114935000D01*
X165983657Y-114176189D02*
X168881411Y-114176189D01*
X165020610Y-113210990D02*
X165020610Y-113213143D01*
X147723210Y-113210990D02*
X165020610Y-113210990D01*
X165020610Y-113213143D02*
X165983657Y-114176189D01*
X126263400Y-115011200D02*
X126263400Y-115316000D01*
X126796800Y-115849400D02*
X127914400Y-115849400D01*
X126263400Y-115316000D02*
X126796800Y-115849400D01*
X127914400Y-115849400D02*
X129108200Y-114655600D01*
X129108200Y-114655600D02*
X146278600Y-114655600D01*
X146278600Y-114655600D02*
X147723210Y-113210990D01*
X124841000Y-115011200D02*
X126263400Y-115011200D01*
X111252000Y-114661980D02*
X112769620Y-116179600D01*
X111252000Y-111810800D02*
X111252000Y-114661980D01*
X112769620Y-116179600D02*
X116281200Y-116179600D01*
X116281200Y-116179600D02*
X118465600Y-113995200D01*
X118465600Y-113995200D02*
X123825000Y-113995200D01*
X123825000Y-113995200D02*
X124841000Y-115011200D01*
X108286601Y-112159999D02*
X108686600Y-111760000D01*
X107061000Y-113385600D02*
X108286601Y-112159999D01*
X108778777Y-122850377D02*
X108778777Y-119548377D01*
X110566200Y-123621800D02*
X109550200Y-123621800D01*
X107061000Y-117830600D02*
X107061000Y-113385600D01*
X112147380Y-122040621D02*
X110566200Y-123621800D01*
X132823163Y-122040621D02*
X112147380Y-122040621D01*
X134518584Y-120345200D02*
X132823163Y-122040621D01*
X187223400Y-115900200D02*
X176250600Y-115900201D01*
X187909200Y-115214400D02*
X187223400Y-115900200D01*
X176250600Y-115900201D02*
X173380400Y-118770400D01*
X108778777Y-119548377D02*
X107061000Y-117830600D01*
X173380400Y-118770400D02*
X153593800Y-118770400D01*
X153593800Y-118770400D02*
X152019000Y-120345200D01*
X109550200Y-123621800D02*
X108778777Y-122850377D01*
X152019000Y-120345200D02*
X134518584Y-120345200D01*
X184810400Y-114096800D02*
X184174004Y-114096800D01*
X149783800Y-111416200D02*
X149783800Y-110312200D01*
X151118200Y-112750600D02*
X149783800Y-111416200D01*
X165208668Y-112750600D02*
X151118200Y-112750600D01*
X166180246Y-113722178D02*
X165208668Y-112750600D01*
X183799382Y-113722178D02*
X166180246Y-113722178D01*
X184174004Y-114096800D02*
X183799382Y-113722178D01*
D22*
X210740000Y-113434600D02*
X210740000Y-116000000D01*
X200580000Y-113434600D02*
X200580000Y-116000000D01*
X198040000Y-113434600D02*
X198040000Y-116000000D01*
X195500000Y-113434600D02*
X195500000Y-116000000D01*
X192960000Y-113434600D02*
X192960000Y-116000000D01*
X190420000Y-113434600D02*
X190420000Y-116000000D01*
D20*
X213280000Y-113434600D02*
X213280000Y-116000000D01*
D21*
X138099800Y-89509600D02*
X136702800Y-89509600D01*
X142927320Y-85633040D02*
X141976360Y-85633040D01*
X141976360Y-85633040D02*
X138099800Y-89509600D01*
X112507866Y-102311200D02*
X109245400Y-102311200D01*
X116721076Y-106524410D02*
X112507866Y-102311200D01*
X130469725Y-106524410D02*
X116721076Y-106524410D01*
X131419600Y-106908600D02*
X130853915Y-106908600D01*
X130853915Y-106908600D02*
X130469725Y-106524410D01*
X144927320Y-85252560D02*
X144927320Y-85633040D01*
X144078960Y-84404200D02*
X144927320Y-85252560D01*
X138409680Y-87955120D02*
X141960600Y-84404200D01*
X136728200Y-87955120D02*
X138409680Y-87955120D01*
X130058160Y-101826795D02*
X129359010Y-101127645D01*
X130058160Y-102392480D02*
X130058160Y-101826795D01*
X129359010Y-101127645D02*
X129359010Y-94516590D01*
X129359010Y-94516590D02*
X129966720Y-93908880D01*
X141960600Y-84404200D02*
X144078960Y-84404200D01*
X129966720Y-93908880D02*
X130774440Y-93908880D01*
X130774440Y-93908880D02*
X136728200Y-87955120D01*
X109709001Y-122129601D02*
X110109000Y-122529600D01*
X109232787Y-121653387D02*
X109709001Y-122129601D01*
X121996200Y-114935000D02*
X119010449Y-114935000D01*
X122529600Y-115468400D02*
X121996200Y-114935000D01*
X119010449Y-114935000D02*
X116724449Y-117221000D01*
X116724449Y-117221000D02*
X110346769Y-117221000D01*
X110346769Y-117221000D02*
X109232787Y-118334982D01*
X109232787Y-118334982D02*
X109232787Y-121653387D01*
X118567200Y-90957400D02*
X117398800Y-90957400D01*
X119075200Y-89662000D02*
X119075200Y-90449400D01*
X119075200Y-90449400D02*
X118567200Y-90957400D01*
X131277360Y-102321360D02*
X130271520Y-101315520D01*
X130271520Y-101315520D02*
X130271520Y-94960440D01*
X127812800Y-117170200D02*
X121843800Y-117170200D01*
X121843800Y-117170200D02*
X121183400Y-116509800D01*
X121183400Y-116509800D02*
X120218200Y-116509800D01*
X120218200Y-116509800D02*
X120040400Y-116332000D01*
X114068533Y-105156000D02*
X113207800Y-105156000D01*
X116079009Y-107166476D02*
X114068533Y-105156000D01*
X116344962Y-107432430D02*
X116079009Y-107166476D01*
X129878964Y-107432430D02*
X116344962Y-107432430D01*
X131666534Y-109220000D02*
X129878964Y-107432430D01*
X131666534Y-109220000D02*
X131673600Y-109220000D01*
X131673600Y-109220000D02*
X132359400Y-109905800D01*
X120929400Y-117373400D02*
X120675400Y-117373400D01*
X128676400Y-118008400D02*
X121564400Y-118008400D01*
X121564400Y-118008400D02*
X120929400Y-117373400D01*
X107899200Y-116687600D02*
X107873800Y-116713000D01*
X116509800Y-116687600D02*
X107899200Y-116687600D01*
X118716410Y-114480990D02*
X116509800Y-116687600D01*
X123825000Y-115468400D02*
X122837590Y-114480990D01*
X122837590Y-114480990D02*
X118716410Y-114480990D01*
X135458200Y-99974400D02*
X135001000Y-99517200D01*
X139496800Y-99974400D02*
X135458200Y-99974400D01*
X141325600Y-101803200D02*
X139496800Y-99974400D01*
X141325600Y-103174800D02*
X141325600Y-101803200D01*
X141046200Y-103454200D02*
X141325600Y-103174800D01*
X129921000Y-113055400D02*
X133096000Y-113055400D01*
X133096000Y-113055400D02*
X134416800Y-111734600D01*
X124993400Y-111270515D02*
X125748515Y-110515400D01*
X125748515Y-110515400D02*
X128320800Y-110515400D01*
X124993400Y-111836200D02*
X124993400Y-111270515D01*
X128320800Y-110515400D02*
X129032000Y-111226600D01*
X134416800Y-105848866D02*
X136811466Y-103454200D01*
X129032000Y-111226600D02*
X129032000Y-112166400D01*
X136811466Y-103454200D02*
X141046200Y-103454200D01*
X134416800Y-111734600D02*
X134416800Y-105848866D01*
X129032000Y-112166400D02*
X129921000Y-113055400D01*
G36*
X129340001Y-83217571D02*
G01*
X129336807Y-83250000D01*
X129349550Y-83379383D01*
X129387290Y-83503793D01*
X129448575Y-83618450D01*
X129531052Y-83718948D01*
X129631550Y-83801425D01*
X129746207Y-83862710D01*
X129870617Y-83900450D01*
X129967581Y-83910000D01*
X130000000Y-83913193D01*
X130032419Y-83910000D01*
X141377169Y-83910000D01*
X138094050Y-87193120D01*
X136765622Y-87193120D01*
X136728199Y-87189434D01*
X136690776Y-87193120D01*
X136690774Y-87193120D01*
X136578822Y-87204146D01*
X136435185Y-87247718D01*
X136302808Y-87318475D01*
X136186778Y-87413698D01*
X136162921Y-87442768D01*
X131363023Y-92242667D01*
X131319297Y-92177226D01*
X131175134Y-92033063D01*
X131005616Y-91919795D01*
X130817258Y-91841774D01*
X130617299Y-91802000D01*
X130557990Y-91802000D01*
X129900680Y-91144690D01*
X129900680Y-90834123D01*
X129964216Y-90807805D01*
X130133734Y-90694537D01*
X130277897Y-90550374D01*
X130391165Y-90380856D01*
X130469186Y-90192498D01*
X130508960Y-89992539D01*
X130508960Y-89788661D01*
X130469186Y-89588702D01*
X130391165Y-89400344D01*
X130277897Y-89230826D01*
X130133734Y-89086663D01*
X129964216Y-88973395D01*
X129775858Y-88895374D01*
X129575899Y-88855600D01*
X129438400Y-88855600D01*
X129438400Y-84822623D01*
X129442086Y-84785200D01*
X129437021Y-84733774D01*
X129427374Y-84635822D01*
X129383802Y-84492185D01*
X129336773Y-84404200D01*
X129313045Y-84359807D01*
X129241679Y-84272848D01*
X129217822Y-84243778D01*
X129188752Y-84219921D01*
X127455880Y-82487050D01*
X127455880Y-82427741D01*
X127416106Y-82227782D01*
X127338085Y-82039424D01*
X127224817Y-81869906D01*
X127185595Y-81830684D01*
X127375134Y-81675134D01*
X127560706Y-81449014D01*
X127698599Y-81191034D01*
X127783513Y-80911111D01*
X127812185Y-80620000D01*
X127783513Y-80328889D01*
X127698599Y-80048966D01*
X127560706Y-79790986D01*
X127375134Y-79564866D01*
X127149014Y-79379294D01*
X126891034Y-79241401D01*
X126611111Y-79156487D01*
X126392950Y-79135000D01*
X126307762Y-79135000D01*
X124094952Y-76922191D01*
X124062343Y-76882457D01*
X123903770Y-76752319D01*
X123722854Y-76655617D01*
X123526550Y-76596069D01*
X123373552Y-76581000D01*
X123373541Y-76581000D01*
X123322400Y-76575963D01*
X123271259Y-76581000D01*
X105460448Y-76581000D01*
X105307450Y-76596069D01*
X105111146Y-76655617D01*
X104930230Y-76752319D01*
X104771657Y-76882457D01*
X104641519Y-77041030D01*
X104544817Y-77221946D01*
X104485269Y-77418250D01*
X104465162Y-77622400D01*
X104485269Y-77826550D01*
X104544817Y-78022854D01*
X104641519Y-78203770D01*
X104771657Y-78362343D01*
X104930230Y-78492481D01*
X105111146Y-78589183D01*
X105307450Y-78648731D01*
X105460448Y-78663800D01*
X122891039Y-78663800D01*
X123408202Y-79180963D01*
X123208966Y-79241401D01*
X122950986Y-79379294D01*
X122724866Y-79564866D01*
X122539294Y-79790986D01*
X122510000Y-79845791D01*
X122480706Y-79790986D01*
X122295134Y-79564866D01*
X122069014Y-79379294D01*
X121811034Y-79241401D01*
X121531111Y-79156487D01*
X121312950Y-79135000D01*
X121167050Y-79135000D01*
X120948889Y-79156487D01*
X120668966Y-79241401D01*
X120410986Y-79379294D01*
X120184866Y-79564866D01*
X119999294Y-79790986D01*
X119970000Y-79845791D01*
X119940706Y-79790986D01*
X119755134Y-79564866D01*
X119529014Y-79379294D01*
X119271034Y-79241401D01*
X118991111Y-79156487D01*
X118772950Y-79135000D01*
X118627050Y-79135000D01*
X118408889Y-79156487D01*
X118128966Y-79241401D01*
X117870986Y-79379294D01*
X117644866Y-79564866D01*
X117459294Y-79790986D01*
X117430000Y-79845791D01*
X117400706Y-79790986D01*
X117215134Y-79564866D01*
X116989014Y-79379294D01*
X116731034Y-79241401D01*
X116451111Y-79156487D01*
X116232950Y-79135000D01*
X116087050Y-79135000D01*
X115868889Y-79156487D01*
X115588966Y-79241401D01*
X115330986Y-79379294D01*
X115104866Y-79564866D01*
X114919294Y-79790986D01*
X114890000Y-79845791D01*
X114860706Y-79790986D01*
X114675134Y-79564866D01*
X114449014Y-79379294D01*
X114191034Y-79241401D01*
X113911111Y-79156487D01*
X113692950Y-79135000D01*
X113547050Y-79135000D01*
X113328889Y-79156487D01*
X113048966Y-79241401D01*
X112790986Y-79379294D01*
X112564866Y-79564866D01*
X112379294Y-79790986D01*
X112350000Y-79845791D01*
X112320706Y-79790986D01*
X112135134Y-79564866D01*
X111909014Y-79379294D01*
X111651034Y-79241401D01*
X111371111Y-79156487D01*
X111152950Y-79135000D01*
X111007050Y-79135000D01*
X110788889Y-79156487D01*
X110508966Y-79241401D01*
X110250986Y-79379294D01*
X110024866Y-79564866D01*
X109839294Y-79790986D01*
X109810000Y-79845791D01*
X109780706Y-79790986D01*
X109595134Y-79564866D01*
X109369014Y-79379294D01*
X109111034Y-79241401D01*
X108831111Y-79156487D01*
X108612950Y-79135000D01*
X108467050Y-79135000D01*
X108248889Y-79156487D01*
X107968966Y-79241401D01*
X107710986Y-79379294D01*
X107484866Y-79564866D01*
X107460393Y-79594687D01*
X107439502Y-79525820D01*
X107380537Y-79415506D01*
X107301185Y-79318815D01*
X107204494Y-79239463D01*
X107094180Y-79180498D01*
X106974482Y-79144188D01*
X106850000Y-79131928D01*
X105150000Y-79131928D01*
X105025518Y-79144188D01*
X104905820Y-79180498D01*
X104795506Y-79239463D01*
X104698815Y-79318815D01*
X104619463Y-79415506D01*
X104560498Y-79525820D01*
X104524188Y-79645518D01*
X104511928Y-79770000D01*
X104511928Y-81470000D01*
X104524188Y-81594482D01*
X104560498Y-81714180D01*
X104619463Y-81824494D01*
X104698815Y-81921185D01*
X104795506Y-82000537D01*
X104905820Y-82059502D01*
X105025518Y-82095812D01*
X105150000Y-82108072D01*
X106850000Y-82108072D01*
X106974482Y-82095812D01*
X107094180Y-82059502D01*
X107204494Y-82000537D01*
X107301185Y-81921185D01*
X107380537Y-81824494D01*
X107439502Y-81714180D01*
X107460393Y-81645313D01*
X107484866Y-81675134D01*
X107710986Y-81860706D01*
X107968966Y-81998599D01*
X108248889Y-82083513D01*
X108467050Y-82105000D01*
X108612950Y-82105000D01*
X108831111Y-82083513D01*
X108903825Y-82061455D01*
X110133320Y-83290951D01*
X110157178Y-83320022D01*
X110273208Y-83415245D01*
X110405585Y-83486002D01*
X110549222Y-83529574D01*
X110661174Y-83540600D01*
X110661176Y-83540600D01*
X110698599Y-83544286D01*
X110736022Y-83540600D01*
X115275995Y-83540600D01*
X115258721Y-83561649D01*
X114404741Y-84415629D01*
X114191034Y-84301401D01*
X113911111Y-84216487D01*
X113692950Y-84195000D01*
X113547050Y-84195000D01*
X113328889Y-84216487D01*
X113048966Y-84301401D01*
X112790986Y-84439294D01*
X112564866Y-84624866D01*
X112379294Y-84850986D01*
X112350000Y-84905791D01*
X112320706Y-84850986D01*
X112135134Y-84624866D01*
X111909014Y-84439294D01*
X111651034Y-84301401D01*
X111371111Y-84216487D01*
X111152950Y-84195000D01*
X111007050Y-84195000D01*
X110788889Y-84216487D01*
X110508966Y-84301401D01*
X110250986Y-84439294D01*
X110024866Y-84624866D01*
X109839294Y-84850986D01*
X109810000Y-84905791D01*
X109780706Y-84850986D01*
X109595134Y-84624866D01*
X109369014Y-84439294D01*
X109111034Y-84301401D01*
X108831111Y-84216487D01*
X108612950Y-84195000D01*
X108467050Y-84195000D01*
X108248889Y-84216487D01*
X107968966Y-84301401D01*
X107710986Y-84439294D01*
X107484866Y-84624866D01*
X107460393Y-84654687D01*
X107439502Y-84585820D01*
X107380537Y-84475506D01*
X107301185Y-84378815D01*
X107204494Y-84299463D01*
X107094180Y-84240498D01*
X106974482Y-84204188D01*
X106850000Y-84191928D01*
X106285750Y-84195000D01*
X106127000Y-84353750D01*
X106127000Y-85553000D01*
X106147000Y-85553000D01*
X106147000Y-85807000D01*
X106127000Y-85807000D01*
X106127000Y-87006250D01*
X106285750Y-87165000D01*
X106850000Y-87168072D01*
X106974482Y-87155812D01*
X107094180Y-87119502D01*
X107204494Y-87060537D01*
X107301185Y-86981185D01*
X107380537Y-86884494D01*
X107439502Y-86774180D01*
X107460393Y-86705313D01*
X107484866Y-86735134D01*
X107710986Y-86920706D01*
X107968966Y-87058599D01*
X108248889Y-87143513D01*
X108467050Y-87165000D01*
X108612950Y-87165000D01*
X108831111Y-87143513D01*
X109111034Y-87058599D01*
X109369014Y-86920706D01*
X109595134Y-86735134D01*
X109780706Y-86509014D01*
X109810000Y-86454209D01*
X109839294Y-86509014D01*
X110024866Y-86735134D01*
X110250986Y-86920706D01*
X110508966Y-87058599D01*
X110788889Y-87143513D01*
X111007050Y-87165000D01*
X111152950Y-87165000D01*
X111371111Y-87143513D01*
X111651034Y-87058599D01*
X111909014Y-86920706D01*
X112135134Y-86735134D01*
X112320706Y-86509014D01*
X112350000Y-86454209D01*
X112379294Y-86509014D01*
X112564866Y-86735134D01*
X112790986Y-86920706D01*
X113048966Y-87058599D01*
X113328889Y-87143513D01*
X113547050Y-87165000D01*
X113692950Y-87165000D01*
X113911111Y-87143513D01*
X114122201Y-87079479D01*
X114122200Y-91720170D01*
X113983825Y-91858545D01*
X113911111Y-91836487D01*
X113692950Y-91815000D01*
X113547050Y-91815000D01*
X113328889Y-91836487D01*
X113328400Y-91836635D01*
X113328400Y-91820661D01*
X113288626Y-91620702D01*
X113210605Y-91432344D01*
X113097337Y-91262826D01*
X112953174Y-91118663D01*
X112783656Y-91005395D01*
X112595298Y-90927374D01*
X112395339Y-90887600D01*
X112191461Y-90887600D01*
X111991502Y-90927374D01*
X111803144Y-91005395D01*
X111633626Y-91118663D01*
X111589689Y-91162600D01*
X106314723Y-91162600D01*
X106277400Y-91158924D01*
X106240077Y-91162600D01*
X106240067Y-91162600D01*
X106128414Y-91173597D01*
X105985153Y-91217054D01*
X105853124Y-91287626D01*
X105737399Y-91382599D01*
X105713596Y-91411603D01*
X105489003Y-91636196D01*
X105459999Y-91659999D01*
X105427969Y-91699028D01*
X105365026Y-91775724D01*
X105345674Y-91811928D01*
X105150000Y-91811928D01*
X105025518Y-91824188D01*
X104905820Y-91860498D01*
X104795506Y-91919463D01*
X104698815Y-91998815D01*
X104619463Y-92095506D01*
X104560498Y-92205820D01*
X104524188Y-92325518D01*
X104511928Y-92450000D01*
X104511928Y-94150000D01*
X104524188Y-94274482D01*
X104560498Y-94394180D01*
X104619463Y-94504494D01*
X104698815Y-94601185D01*
X104795506Y-94680537D01*
X104905820Y-94739502D01*
X105025518Y-94775812D01*
X105150000Y-94788072D01*
X106850000Y-94788072D01*
X106974482Y-94775812D01*
X107094180Y-94739502D01*
X107204494Y-94680537D01*
X107301185Y-94601185D01*
X107380537Y-94504494D01*
X107439502Y-94394180D01*
X107460393Y-94325313D01*
X107484866Y-94355134D01*
X107710986Y-94540706D01*
X107778001Y-94576526D01*
X107778000Y-96503369D01*
X106370849Y-97910521D01*
X106341779Y-97934378D01*
X106317922Y-97963448D01*
X106317921Y-97963449D01*
X106246555Y-98050408D01*
X106175799Y-98182785D01*
X106132227Y-98326422D01*
X106117514Y-98475800D01*
X106121201Y-98513233D01*
X106121200Y-100007484D01*
X104923049Y-101205636D01*
X104893979Y-101229493D01*
X104870122Y-101258563D01*
X104870121Y-101258564D01*
X104798755Y-101345523D01*
X104768887Y-101401403D01*
X104727998Y-101477900D01*
X104684426Y-101621537D01*
X104684172Y-101624117D01*
X104631463Y-101676826D01*
X104518195Y-101846344D01*
X104440174Y-102034702D01*
X104400400Y-102234661D01*
X104400400Y-102438539D01*
X104440174Y-102638498D01*
X104518195Y-102826856D01*
X104631463Y-102996374D01*
X104775626Y-103140537D01*
X104945144Y-103253805D01*
X105133502Y-103331826D01*
X105333461Y-103371600D01*
X105537339Y-103371600D01*
X105737298Y-103331826D01*
X105925656Y-103253805D01*
X106070400Y-103157090D01*
X106215144Y-103253805D01*
X106403502Y-103331826D01*
X106603461Y-103371600D01*
X106807339Y-103371600D01*
X107007298Y-103331826D01*
X107195656Y-103253805D01*
X107353100Y-103148605D01*
X107510544Y-103253805D01*
X107698902Y-103331826D01*
X107898861Y-103371600D01*
X108102739Y-103371600D01*
X108302698Y-103331826D01*
X108491056Y-103253805D01*
X108642107Y-103152876D01*
X108755144Y-103228405D01*
X108943502Y-103306426D01*
X109143461Y-103346200D01*
X109347339Y-103346200D01*
X109547298Y-103306426D01*
X109735656Y-103228405D01*
X109905174Y-103115137D01*
X109947111Y-103073200D01*
X112192236Y-103073200D01*
X112497036Y-103378000D01*
X112385511Y-103378000D01*
X112343574Y-103336063D01*
X112174056Y-103222795D01*
X111985698Y-103144774D01*
X111785739Y-103105000D01*
X111581861Y-103105000D01*
X111381902Y-103144774D01*
X111193544Y-103222795D01*
X111024026Y-103336063D01*
X110879863Y-103480226D01*
X110766595Y-103649744D01*
X110688574Y-103838102D01*
X110648800Y-104038061D01*
X110648800Y-104241939D01*
X110688574Y-104441898D01*
X110766595Y-104630256D01*
X110879863Y-104799774D01*
X111024026Y-104943937D01*
X111193544Y-105057205D01*
X111381902Y-105135226D01*
X111581861Y-105175000D01*
X111785739Y-105175000D01*
X111985698Y-105135226D01*
X112172800Y-105057725D01*
X112172800Y-105257939D01*
X112212574Y-105457898D01*
X112290595Y-105646256D01*
X112403863Y-105815774D01*
X112548026Y-105959937D01*
X112717544Y-106073205D01*
X112905902Y-106151226D01*
X113105861Y-106191000D01*
X113309739Y-106191000D01*
X113509698Y-106151226D01*
X113698056Y-106073205D01*
X113823973Y-105989070D01*
X115566657Y-107731755D01*
X115566662Y-107731759D01*
X115779677Y-107944775D01*
X115803540Y-107973852D01*
X115919570Y-108069075D01*
X116051947Y-108139832D01*
X116195584Y-108183404D01*
X116307536Y-108194430D01*
X116307537Y-108194430D01*
X116344960Y-108198116D01*
X116382383Y-108194430D01*
X129563334Y-108194430D01*
X131101254Y-109732351D01*
X131125112Y-109761422D01*
X131154182Y-109785279D01*
X131193593Y-109817623D01*
X131324400Y-109948430D01*
X131324400Y-110007739D01*
X131364174Y-110207698D01*
X131442195Y-110396056D01*
X131555463Y-110565574D01*
X131699626Y-110709737D01*
X131869144Y-110823005D01*
X132057502Y-110901026D01*
X132257461Y-110940800D01*
X132461339Y-110940800D01*
X132661298Y-110901026D01*
X132849656Y-110823005D01*
X133019174Y-110709737D01*
X133163337Y-110565574D01*
X133276605Y-110396056D01*
X133354626Y-110207698D01*
X133394400Y-110007739D01*
X133394400Y-109803861D01*
X133354626Y-109603902D01*
X133276605Y-109415544D01*
X133163337Y-109246026D01*
X133019174Y-109101863D01*
X132849656Y-108988595D01*
X132661298Y-108910574D01*
X132461339Y-108870800D01*
X132402030Y-108870800D01*
X132238884Y-108707654D01*
X132216353Y-108680200D01*
X132359739Y-108680200D01*
X132559698Y-108640426D01*
X132748056Y-108562405D01*
X132917574Y-108449137D01*
X133061737Y-108304974D01*
X133175005Y-108135456D01*
X133253026Y-107947098D01*
X133292800Y-107747139D01*
X133292800Y-107543261D01*
X133253026Y-107343302D01*
X133175005Y-107154944D01*
X133061737Y-106985426D01*
X132917574Y-106841263D01*
X132904310Y-106832400D01*
X133515777Y-106832400D01*
X133553200Y-106836086D01*
X133590623Y-106832400D01*
X133590626Y-106832400D01*
X133654801Y-106826080D01*
X133654800Y-111418969D01*
X132780370Y-112293400D01*
X130236631Y-112293400D01*
X129794000Y-111850770D01*
X129794000Y-111264023D01*
X129797686Y-111226600D01*
X129792744Y-111176426D01*
X129782974Y-111077222D01*
X129739402Y-110933585D01*
X129690403Y-110841914D01*
X129668645Y-110801207D01*
X129625467Y-110748595D01*
X129573422Y-110685178D01*
X129544347Y-110661317D01*
X128886084Y-110003054D01*
X128862222Y-109973978D01*
X128746192Y-109878755D01*
X128613815Y-109807998D01*
X128470178Y-109764426D01*
X128358226Y-109753400D01*
X128358223Y-109753400D01*
X128320800Y-109749714D01*
X128283377Y-109753400D01*
X125785938Y-109753400D01*
X125748515Y-109749714D01*
X125711092Y-109753400D01*
X125711089Y-109753400D01*
X125599137Y-109764426D01*
X125455500Y-109807998D01*
X125412008Y-109831245D01*
X125323122Y-109878755D01*
X125263847Y-109927401D01*
X125207093Y-109973978D01*
X125183235Y-110003049D01*
X124481049Y-110705236D01*
X124451979Y-110729093D01*
X124428122Y-110758163D01*
X124428121Y-110758164D01*
X124356755Y-110845123D01*
X124330847Y-110893595D01*
X124300006Y-110951292D01*
X124213656Y-110893595D01*
X124025298Y-110815574D01*
X123825339Y-110775800D01*
X123621461Y-110775800D01*
X123421502Y-110815574D01*
X123233144Y-110893595D01*
X123063626Y-111006863D01*
X122919463Y-111151026D01*
X122806195Y-111320544D01*
X122728174Y-111508902D01*
X122688400Y-111708861D01*
X122688400Y-111912739D01*
X122728174Y-112112698D01*
X122806195Y-112301056D01*
X122919463Y-112470574D01*
X122972172Y-112523283D01*
X122972426Y-112525862D01*
X123015998Y-112669499D01*
X123036482Y-112707822D01*
X123074629Y-112779190D01*
X118220433Y-112779190D01*
X118183010Y-112775504D01*
X118145587Y-112779190D01*
X118145584Y-112779190D01*
X118033632Y-112790216D01*
X117889995Y-112833788D01*
X117834919Y-112863227D01*
X117757617Y-112904545D01*
X117694320Y-112956492D01*
X117641588Y-112999768D01*
X117617731Y-113028838D01*
X115711570Y-114935000D01*
X113472630Y-114935000D01*
X113284000Y-114746370D01*
X113284000Y-112537911D01*
X113325937Y-112495974D01*
X113439205Y-112326456D01*
X113517226Y-112138098D01*
X113557000Y-111938139D01*
X113557000Y-111734261D01*
X113517226Y-111534302D01*
X113439205Y-111345944D01*
X113325937Y-111176426D01*
X113181774Y-111032263D01*
X113012256Y-110918995D01*
X112823898Y-110840974D01*
X112623939Y-110801200D01*
X112420061Y-110801200D01*
X112220102Y-110840974D01*
X112031744Y-110918995D01*
X111906007Y-111003010D01*
X111742256Y-110893595D01*
X111553898Y-110815574D01*
X111353939Y-110775800D01*
X111150061Y-110775800D01*
X110950102Y-110815574D01*
X110761744Y-110893595D01*
X110592226Y-111006863D01*
X110448063Y-111151026D01*
X110334795Y-111320544D01*
X110256774Y-111508902D01*
X110217000Y-111708861D01*
X110217000Y-111912739D01*
X110256774Y-112112698D01*
X110334795Y-112301056D01*
X110448063Y-112470574D01*
X110490000Y-112512511D01*
X110490001Y-114624547D01*
X110486314Y-114661980D01*
X110501027Y-114811358D01*
X110544599Y-114954995D01*
X110615355Y-115087372D01*
X110681486Y-115167952D01*
X110710579Y-115203402D01*
X110739649Y-115227259D01*
X111437990Y-115925600D01*
X108550111Y-115925600D01*
X108533574Y-115909063D01*
X108364056Y-115795795D01*
X108175698Y-115717774D01*
X107975739Y-115678000D01*
X107823000Y-115678000D01*
X107823000Y-113701230D01*
X108729230Y-112795000D01*
X108788539Y-112795000D01*
X108988498Y-112755226D01*
X109176856Y-112677205D01*
X109346374Y-112563937D01*
X109490537Y-112419774D01*
X109603805Y-112250256D01*
X109681826Y-112061898D01*
X109721600Y-111861939D01*
X109721600Y-111658061D01*
X109681826Y-111458102D01*
X109603805Y-111269744D01*
X109490537Y-111100226D01*
X109346374Y-110956063D01*
X109176856Y-110842795D01*
X108988498Y-110764774D01*
X108788539Y-110725000D01*
X108584661Y-110725000D01*
X108384702Y-110764774D01*
X108196344Y-110842795D01*
X108026826Y-110956063D01*
X107882663Y-111100226D01*
X107769395Y-111269744D01*
X107691374Y-111458102D01*
X107651600Y-111658061D01*
X107651600Y-111717370D01*
X106548649Y-112820321D01*
X106519579Y-112844178D01*
X106495722Y-112873248D01*
X106495721Y-112873249D01*
X106424355Y-112960208D01*
X106353599Y-113092585D01*
X106310027Y-113236222D01*
X106295314Y-113385600D01*
X106299001Y-113423033D01*
X106299000Y-117793177D01*
X106295314Y-117830600D01*
X106299000Y-117868023D01*
X106299000Y-117868025D01*
X106310026Y-117979977D01*
X106353598Y-118123614D01*
X106367175Y-118149015D01*
X106424355Y-118255992D01*
X106458466Y-118297556D01*
X106519578Y-118372022D01*
X106548654Y-118395884D01*
X108016778Y-119864008D01*
X108016777Y-122812954D01*
X108013091Y-122850377D01*
X108016777Y-122887800D01*
X108016777Y-122887802D01*
X108027803Y-122999754D01*
X108071375Y-123143391D01*
X108099713Y-123196407D01*
X108142132Y-123275769D01*
X108179124Y-123320844D01*
X108237355Y-123391799D01*
X108266430Y-123415661D01*
X108984920Y-124134151D01*
X109008778Y-124163222D01*
X109037848Y-124187079D01*
X109124807Y-124258445D01*
X109194722Y-124295815D01*
X109257185Y-124329202D01*
X109400822Y-124372774D01*
X109507669Y-124383297D01*
X109400702Y-124404574D01*
X109212344Y-124482595D01*
X109042826Y-124595863D01*
X108898663Y-124740026D01*
X108785395Y-124909544D01*
X108707374Y-125097902D01*
X108667600Y-125297861D01*
X108667600Y-125501739D01*
X108707374Y-125701698D01*
X108785395Y-125890056D01*
X108898663Y-126059574D01*
X109042826Y-126203737D01*
X109212344Y-126317005D01*
X109279958Y-126345012D01*
X109207170Y-126417800D01*
X108831511Y-126417800D01*
X108787574Y-126373863D01*
X108618056Y-126260595D01*
X108429698Y-126182574D01*
X108229739Y-126142800D01*
X108025861Y-126142800D01*
X107825902Y-126182574D01*
X107637544Y-126260595D01*
X107468026Y-126373863D01*
X107323863Y-126518026D01*
X107210595Y-126687544D01*
X107132574Y-126875902D01*
X107092800Y-127075861D01*
X107092800Y-127279739D01*
X107132574Y-127479698D01*
X107210595Y-127668056D01*
X107323863Y-127837574D01*
X107468026Y-127981737D01*
X107637544Y-128095005D01*
X107825902Y-128173026D01*
X108025861Y-128212800D01*
X108229739Y-128212800D01*
X108429698Y-128173026D01*
X108618056Y-128095005D01*
X108787574Y-127981737D01*
X108831511Y-127937800D01*
X109390867Y-127937800D01*
X109411174Y-127939800D01*
X109487377Y-127939800D01*
X109524800Y-127943486D01*
X109562223Y-127939800D01*
X109562226Y-127939800D01*
X109674178Y-127928774D01*
X109817815Y-127885202D01*
X109950192Y-127814445D01*
X110066222Y-127719222D01*
X110090084Y-127690146D01*
X110764421Y-127015809D01*
X115621233Y-127015809D01*
X115658656Y-127019495D01*
X115696079Y-127015809D01*
X115696082Y-127015809D01*
X115808034Y-127004783D01*
X115951671Y-126961211D01*
X116084048Y-126890454D01*
X116200078Y-126795231D01*
X116223940Y-126766156D01*
X116701296Y-126288800D01*
X122374369Y-126288800D01*
X122349550Y-126370617D01*
X122336807Y-126500000D01*
X122340000Y-126532418D01*
X122340001Y-129340000D01*
X103660000Y-129340000D01*
X103660000Y-86530000D01*
X104511928Y-86530000D01*
X104524188Y-86654482D01*
X104560498Y-86774180D01*
X104619463Y-86884494D01*
X104698815Y-86981185D01*
X104795506Y-87060537D01*
X104905820Y-87119502D01*
X105025518Y-87155812D01*
X105150000Y-87168072D01*
X105714250Y-87165000D01*
X105873000Y-87006250D01*
X105873000Y-85807000D01*
X104673750Y-85807000D01*
X104515000Y-85965750D01*
X104511928Y-86530000D01*
X103660000Y-86530000D01*
X103660000Y-84830000D01*
X104511928Y-84830000D01*
X104515000Y-85394250D01*
X104673750Y-85553000D01*
X105873000Y-85553000D01*
X105873000Y-84353750D01*
X105714250Y-84195000D01*
X105150000Y-84191928D01*
X105025518Y-84204188D01*
X104905820Y-84240498D01*
X104795506Y-84299463D01*
X104698815Y-84378815D01*
X104619463Y-84475506D01*
X104560498Y-84585820D01*
X104524188Y-84705518D01*
X104511928Y-84830000D01*
X103660000Y-84830000D01*
X103660000Y-73850000D01*
X104511928Y-73850000D01*
X104524188Y-73974482D01*
X104560498Y-74094180D01*
X104619463Y-74204494D01*
X104698815Y-74301185D01*
X104795506Y-74380537D01*
X104905820Y-74439502D01*
X105025518Y-74475812D01*
X105150000Y-74488072D01*
X105714250Y-74485000D01*
X105873000Y-74326250D01*
X105873000Y-73127000D01*
X104673750Y-73127000D01*
X104515000Y-73285750D01*
X104511928Y-73850000D01*
X103660000Y-73850000D01*
X103660000Y-72150000D01*
X104511928Y-72150000D01*
X104515000Y-72714250D01*
X104673750Y-72873000D01*
X105873000Y-72873000D01*
X105873000Y-71673750D01*
X106127000Y-71673750D01*
X106127000Y-72873000D01*
X106147000Y-72873000D01*
X106147000Y-73127000D01*
X106127000Y-73127000D01*
X106127000Y-74326250D01*
X106285750Y-74485000D01*
X106850000Y-74488072D01*
X106974482Y-74475812D01*
X107094180Y-74439502D01*
X107204494Y-74380537D01*
X107301185Y-74301185D01*
X107380537Y-74204494D01*
X107439502Y-74094180D01*
X107460393Y-74025313D01*
X107484866Y-74055134D01*
X107710986Y-74240706D01*
X107968966Y-74378599D01*
X108248889Y-74463513D01*
X108467050Y-74485000D01*
X108612950Y-74485000D01*
X108831111Y-74463513D01*
X109111034Y-74378599D01*
X109369014Y-74240706D01*
X109595134Y-74055134D01*
X109780706Y-73829014D01*
X109810000Y-73774209D01*
X109839294Y-73829014D01*
X110024866Y-74055134D01*
X110250986Y-74240706D01*
X110508966Y-74378599D01*
X110788889Y-74463513D01*
X111007050Y-74485000D01*
X111152950Y-74485000D01*
X111371111Y-74463513D01*
X111651034Y-74378599D01*
X111909014Y-74240706D01*
X112135134Y-74055134D01*
X112320706Y-73829014D01*
X112350000Y-73774209D01*
X112379294Y-73829014D01*
X112564866Y-74055134D01*
X112790986Y-74240706D01*
X113048966Y-74378599D01*
X113328889Y-74463513D01*
X113547050Y-74485000D01*
X113692950Y-74485000D01*
X113911111Y-74463513D01*
X114191034Y-74378599D01*
X114449014Y-74240706D01*
X114675134Y-74055134D01*
X114860706Y-73829014D01*
X114890000Y-73774209D01*
X114919294Y-73829014D01*
X115104866Y-74055134D01*
X115330986Y-74240706D01*
X115588966Y-74378599D01*
X115868889Y-74463513D01*
X116087050Y-74485000D01*
X116232950Y-74485000D01*
X116451111Y-74463513D01*
X116731034Y-74378599D01*
X116989014Y-74240706D01*
X117215134Y-74055134D01*
X117400706Y-73829014D01*
X117430000Y-73774209D01*
X117459294Y-73829014D01*
X117644866Y-74055134D01*
X117870986Y-74240706D01*
X118128966Y-74378599D01*
X118408889Y-74463513D01*
X118627050Y-74485000D01*
X118772950Y-74485000D01*
X118991111Y-74463513D01*
X119271034Y-74378599D01*
X119529014Y-74240706D01*
X119755134Y-74055134D01*
X119940706Y-73829014D01*
X119970000Y-73774209D01*
X119999294Y-73829014D01*
X120184866Y-74055134D01*
X120410986Y-74240706D01*
X120668966Y-74378599D01*
X120948889Y-74463513D01*
X121167050Y-74485000D01*
X121312950Y-74485000D01*
X121531111Y-74463513D01*
X121811034Y-74378599D01*
X122069014Y-74240706D01*
X122295134Y-74055134D01*
X122480706Y-73829014D01*
X122510000Y-73774209D01*
X122539294Y-73829014D01*
X122724866Y-74055134D01*
X122950986Y-74240706D01*
X123208966Y-74378599D01*
X123488889Y-74463513D01*
X123707050Y-74485000D01*
X123852950Y-74485000D01*
X124071111Y-74463513D01*
X124351034Y-74378599D01*
X124609014Y-74240706D01*
X124835134Y-74055134D01*
X125020706Y-73829014D01*
X125050000Y-73774209D01*
X125079294Y-73829014D01*
X125264866Y-74055134D01*
X125490986Y-74240706D01*
X125748966Y-74378599D01*
X126028889Y-74463513D01*
X126247050Y-74485000D01*
X126392950Y-74485000D01*
X126611111Y-74463513D01*
X126891034Y-74378599D01*
X127149014Y-74240706D01*
X127375134Y-74055134D01*
X127560706Y-73829014D01*
X127698599Y-73571034D01*
X127783513Y-73291111D01*
X127812185Y-73000000D01*
X127783513Y-72708889D01*
X127698599Y-72428966D01*
X127560706Y-72170986D01*
X127375134Y-71944866D01*
X127149014Y-71759294D01*
X126891034Y-71621401D01*
X126611111Y-71536487D01*
X126392950Y-71515000D01*
X126247050Y-71515000D01*
X126028889Y-71536487D01*
X125748966Y-71621401D01*
X125490986Y-71759294D01*
X125264866Y-71944866D01*
X125079294Y-72170986D01*
X125050000Y-72225791D01*
X125020706Y-72170986D01*
X124835134Y-71944866D01*
X124609014Y-71759294D01*
X124351034Y-71621401D01*
X124071111Y-71536487D01*
X123852950Y-71515000D01*
X123707050Y-71515000D01*
X123488889Y-71536487D01*
X123208966Y-71621401D01*
X122950986Y-71759294D01*
X122724866Y-71944866D01*
X122539294Y-72170986D01*
X122510000Y-72225791D01*
X122480706Y-72170986D01*
X122295134Y-71944866D01*
X122069014Y-71759294D01*
X121811034Y-71621401D01*
X121531111Y-71536487D01*
X121312950Y-71515000D01*
X121167050Y-71515000D01*
X120948889Y-71536487D01*
X120668966Y-71621401D01*
X120410986Y-71759294D01*
X120184866Y-71944866D01*
X119999294Y-72170986D01*
X119970000Y-72225791D01*
X119940706Y-72170986D01*
X119755134Y-71944866D01*
X119529014Y-71759294D01*
X119271034Y-71621401D01*
X118991111Y-71536487D01*
X118772950Y-71515000D01*
X118627050Y-71515000D01*
X118408889Y-71536487D01*
X118128966Y-71621401D01*
X117870986Y-71759294D01*
X117644866Y-71944866D01*
X117459294Y-72170986D01*
X117430000Y-72225791D01*
X117400706Y-72170986D01*
X117215134Y-71944866D01*
X116989014Y-71759294D01*
X116731034Y-71621401D01*
X116451111Y-71536487D01*
X116232950Y-71515000D01*
X116087050Y-71515000D01*
X115868889Y-71536487D01*
X115588966Y-71621401D01*
X115330986Y-71759294D01*
X115104866Y-71944866D01*
X114919294Y-72170986D01*
X114890000Y-72225791D01*
X114860706Y-72170986D01*
X114675134Y-71944866D01*
X114449014Y-71759294D01*
X114191034Y-71621401D01*
X113911111Y-71536487D01*
X113692950Y-71515000D01*
X113547050Y-71515000D01*
X113328889Y-71536487D01*
X113048966Y-71621401D01*
X112790986Y-71759294D01*
X112564866Y-71944866D01*
X112379294Y-72170986D01*
X112350000Y-72225791D01*
X112320706Y-72170986D01*
X112135134Y-71944866D01*
X111909014Y-71759294D01*
X111651034Y-71621401D01*
X111371111Y-71536487D01*
X111152950Y-71515000D01*
X111007050Y-71515000D01*
X110788889Y-71536487D01*
X110508966Y-71621401D01*
X110250986Y-71759294D01*
X110024866Y-71944866D01*
X109839294Y-72170986D01*
X109810000Y-72225791D01*
X109780706Y-72170986D01*
X109595134Y-71944866D01*
X109369014Y-71759294D01*
X109111034Y-71621401D01*
X108831111Y-71536487D01*
X108612950Y-71515000D01*
X108467050Y-71515000D01*
X108248889Y-71536487D01*
X107968966Y-71621401D01*
X107710986Y-71759294D01*
X107484866Y-71944866D01*
X107460393Y-71974687D01*
X107439502Y-71905820D01*
X107380537Y-71795506D01*
X107301185Y-71698815D01*
X107204494Y-71619463D01*
X107094180Y-71560498D01*
X106974482Y-71524188D01*
X106850000Y-71511928D01*
X106285750Y-71515000D01*
X106127000Y-71673750D01*
X105873000Y-71673750D01*
X105714250Y-71515000D01*
X105150000Y-71511928D01*
X105025518Y-71524188D01*
X104905820Y-71560498D01*
X104795506Y-71619463D01*
X104698815Y-71698815D01*
X104619463Y-71795506D01*
X104560498Y-71905820D01*
X104524188Y-72025518D01*
X104511928Y-72150000D01*
X103660000Y-72150000D01*
X103660000Y-71410000D01*
X129340000Y-71410000D01*
X129340001Y-83217571D01*
X129340001Y-83217571D01*
G37*
X129340001Y-83217571D02*
X129336807Y-83250000D01*
X129349550Y-83379383D01*
X129387290Y-83503793D01*
X129448575Y-83618450D01*
X129531052Y-83718948D01*
X129631550Y-83801425D01*
X129746207Y-83862710D01*
X129870617Y-83900450D01*
X129967581Y-83910000D01*
X130000000Y-83913193D01*
X130032419Y-83910000D01*
X141377169Y-83910000D01*
X138094050Y-87193120D01*
X136765622Y-87193120D01*
X136728199Y-87189434D01*
X136690776Y-87193120D01*
X136690774Y-87193120D01*
X136578822Y-87204146D01*
X136435185Y-87247718D01*
X136302808Y-87318475D01*
X136186778Y-87413698D01*
X136162921Y-87442768D01*
X131363023Y-92242667D01*
X131319297Y-92177226D01*
X131175134Y-92033063D01*
X131005616Y-91919795D01*
X130817258Y-91841774D01*
X130617299Y-91802000D01*
X130557990Y-91802000D01*
X129900680Y-91144690D01*
X129900680Y-90834123D01*
X129964216Y-90807805D01*
X130133734Y-90694537D01*
X130277897Y-90550374D01*
X130391165Y-90380856D01*
X130469186Y-90192498D01*
X130508960Y-89992539D01*
X130508960Y-89788661D01*
X130469186Y-89588702D01*
X130391165Y-89400344D01*
X130277897Y-89230826D01*
X130133734Y-89086663D01*
X129964216Y-88973395D01*
X129775858Y-88895374D01*
X129575899Y-88855600D01*
X129438400Y-88855600D01*
X129438400Y-84822623D01*
X129442086Y-84785200D01*
X129437021Y-84733774D01*
X129427374Y-84635822D01*
X129383802Y-84492185D01*
X129336773Y-84404200D01*
X129313045Y-84359807D01*
X129241679Y-84272848D01*
X129217822Y-84243778D01*
X129188752Y-84219921D01*
X127455880Y-82487050D01*
X127455880Y-82427741D01*
X127416106Y-82227782D01*
X127338085Y-82039424D01*
X127224817Y-81869906D01*
X127185595Y-81830684D01*
X127375134Y-81675134D01*
X127560706Y-81449014D01*
X127698599Y-81191034D01*
X127783513Y-80911111D01*
X127812185Y-80620000D01*
X127783513Y-80328889D01*
X127698599Y-80048966D01*
X127560706Y-79790986D01*
X127375134Y-79564866D01*
X127149014Y-79379294D01*
X126891034Y-79241401D01*
X126611111Y-79156487D01*
X126392950Y-79135000D01*
X126307762Y-79135000D01*
X124094952Y-76922191D01*
X124062343Y-76882457D01*
X123903770Y-76752319D01*
X123722854Y-76655617D01*
X123526550Y-76596069D01*
X123373552Y-76581000D01*
X123373541Y-76581000D01*
X123322400Y-76575963D01*
X123271259Y-76581000D01*
X105460448Y-76581000D01*
X105307450Y-76596069D01*
X105111146Y-76655617D01*
X104930230Y-76752319D01*
X104771657Y-76882457D01*
X104641519Y-77041030D01*
X104544817Y-77221946D01*
X104485269Y-77418250D01*
X104465162Y-77622400D01*
X104485269Y-77826550D01*
X104544817Y-78022854D01*
X104641519Y-78203770D01*
X104771657Y-78362343D01*
X104930230Y-78492481D01*
X105111146Y-78589183D01*
X105307450Y-78648731D01*
X105460448Y-78663800D01*
X122891039Y-78663800D01*
X123408202Y-79180963D01*
X123208966Y-79241401D01*
X122950986Y-79379294D01*
X122724866Y-79564866D01*
X122539294Y-79790986D01*
X122510000Y-79845791D01*
X122480706Y-79790986D01*
X122295134Y-79564866D01*
X122069014Y-79379294D01*
X121811034Y-79241401D01*
X121531111Y-79156487D01*
X121312950Y-79135000D01*
X121167050Y-79135000D01*
X120948889Y-79156487D01*
X120668966Y-79241401D01*
X120410986Y-79379294D01*
X120184866Y-79564866D01*
X119999294Y-79790986D01*
X119970000Y-79845791D01*
X119940706Y-79790986D01*
X119755134Y-79564866D01*
X119529014Y-79379294D01*
X119271034Y-79241401D01*
X118991111Y-79156487D01*
X118772950Y-79135000D01*
X118627050Y-79135000D01*
X118408889Y-79156487D01*
X118128966Y-79241401D01*
X117870986Y-79379294D01*
X117644866Y-79564866D01*
X117459294Y-79790986D01*
X117430000Y-79845791D01*
X117400706Y-79790986D01*
X117215134Y-79564866D01*
X116989014Y-79379294D01*
X116731034Y-79241401D01*
X116451111Y-79156487D01*
X116232950Y-79135000D01*
X116087050Y-79135000D01*
X115868889Y-79156487D01*
X115588966Y-79241401D01*
X115330986Y-79379294D01*
X115104866Y-79564866D01*
X114919294Y-79790986D01*
X114890000Y-79845791D01*
X114860706Y-79790986D01*
X114675134Y-79564866D01*
X114449014Y-79379294D01*
X114191034Y-79241401D01*
X113911111Y-79156487D01*
X113692950Y-79135000D01*
X113547050Y-79135000D01*
X113328889Y-79156487D01*
X113048966Y-79241401D01*
X112790986Y-79379294D01*
X112564866Y-79564866D01*
X112379294Y-79790986D01*
X112350000Y-79845791D01*
X112320706Y-79790986D01*
X112135134Y-79564866D01*
X111909014Y-79379294D01*
X111651034Y-79241401D01*
X111371111Y-79156487D01*
X111152950Y-79135000D01*
X111007050Y-79135000D01*
X110788889Y-79156487D01*
X110508966Y-79241401D01*
X110250986Y-79379294D01*
X110024866Y-79564866D01*
X109839294Y-79790986D01*
X109810000Y-79845791D01*
X109780706Y-79790986D01*
X109595134Y-79564866D01*
X109369014Y-79379294D01*
X109111034Y-79241401D01*
X108831111Y-79156487D01*
X108612950Y-79135000D01*
X108467050Y-79135000D01*
X108248889Y-79156487D01*
X107968966Y-79241401D01*
X107710986Y-79379294D01*
X107484866Y-79564866D01*
X107460393Y-79594687D01*
X107439502Y-79525820D01*
X107380537Y-79415506D01*
X107301185Y-79318815D01*
X107204494Y-79239463D01*
X107094180Y-79180498D01*
X106974482Y-79144188D01*
X106850000Y-79131928D01*
X105150000Y-79131928D01*
X105025518Y-79144188D01*
X104905820Y-79180498D01*
X104795506Y-79239463D01*
X104698815Y-79318815D01*
X104619463Y-79415506D01*
X104560498Y-79525820D01*
X104524188Y-79645518D01*
X104511928Y-79770000D01*
X104511928Y-81470000D01*
X104524188Y-81594482D01*
X104560498Y-81714180D01*
X104619463Y-81824494D01*
X104698815Y-81921185D01*
X104795506Y-82000537D01*
X104905820Y-82059502D01*
X105025518Y-82095812D01*
X105150000Y-82108072D01*
X106850000Y-82108072D01*
X106974482Y-82095812D01*
X107094180Y-82059502D01*
X107204494Y-82000537D01*
X107301185Y-81921185D01*
X107380537Y-81824494D01*
X107439502Y-81714180D01*
X107460393Y-81645313D01*
X107484866Y-81675134D01*
X107710986Y-81860706D01*
X107968966Y-81998599D01*
X108248889Y-82083513D01*
X108467050Y-82105000D01*
X108612950Y-82105000D01*
X108831111Y-82083513D01*
X108903825Y-82061455D01*
X110133320Y-83290951D01*
X110157178Y-83320022D01*
X110273208Y-83415245D01*
X110405585Y-83486002D01*
X110549222Y-83529574D01*
X110661174Y-83540600D01*
X110661176Y-83540600D01*
X110698599Y-83544286D01*
X110736022Y-83540600D01*
X115275995Y-83540600D01*
X115258721Y-83561649D01*
X114404741Y-84415629D01*
X114191034Y-84301401D01*
X113911111Y-84216487D01*
X113692950Y-84195000D01*
X113547050Y-84195000D01*
X113328889Y-84216487D01*
X113048966Y-84301401D01*
X112790986Y-84439294D01*
X112564866Y-84624866D01*
X112379294Y-84850986D01*
X112350000Y-84905791D01*
X112320706Y-84850986D01*
X112135134Y-84624866D01*
X111909014Y-84439294D01*
X111651034Y-84301401D01*
X111371111Y-84216487D01*
X111152950Y-84195000D01*
X111007050Y-84195000D01*
X110788889Y-84216487D01*
X110508966Y-84301401D01*
X110250986Y-84439294D01*
X110024866Y-84624866D01*
X109839294Y-84850986D01*
X109810000Y-84905791D01*
X109780706Y-84850986D01*
X109595134Y-84624866D01*
X109369014Y-84439294D01*
X109111034Y-84301401D01*
X108831111Y-84216487D01*
X108612950Y-84195000D01*
X108467050Y-84195000D01*
X108248889Y-84216487D01*
X107968966Y-84301401D01*
X107710986Y-84439294D01*
X107484866Y-84624866D01*
X107460393Y-84654687D01*
X107439502Y-84585820D01*
X107380537Y-84475506D01*
X107301185Y-84378815D01*
X107204494Y-84299463D01*
X107094180Y-84240498D01*
X106974482Y-84204188D01*
X106850000Y-84191928D01*
X106285750Y-84195000D01*
X106127000Y-84353750D01*
X106127000Y-85553000D01*
X106147000Y-85553000D01*
X106147000Y-85807000D01*
X106127000Y-85807000D01*
X106127000Y-87006250D01*
X106285750Y-87165000D01*
X106850000Y-87168072D01*
X106974482Y-87155812D01*
X107094180Y-87119502D01*
X107204494Y-87060537D01*
X107301185Y-86981185D01*
X107380537Y-86884494D01*
X107439502Y-86774180D01*
X107460393Y-86705313D01*
X107484866Y-86735134D01*
X107710986Y-86920706D01*
X107968966Y-87058599D01*
X108248889Y-87143513D01*
X108467050Y-87165000D01*
X108612950Y-87165000D01*
X108831111Y-87143513D01*
X109111034Y-87058599D01*
X109369014Y-86920706D01*
X109595134Y-86735134D01*
X109780706Y-86509014D01*
X109810000Y-86454209D01*
X109839294Y-86509014D01*
X110024866Y-86735134D01*
X110250986Y-86920706D01*
X110508966Y-87058599D01*
X110788889Y-87143513D01*
X111007050Y-87165000D01*
X111152950Y-87165000D01*
X111371111Y-87143513D01*
X111651034Y-87058599D01*
X111909014Y-86920706D01*
X112135134Y-86735134D01*
X112320706Y-86509014D01*
X112350000Y-86454209D01*
X112379294Y-86509014D01*
X112564866Y-86735134D01*
X112790986Y-86920706D01*
X113048966Y-87058599D01*
X113328889Y-87143513D01*
X113547050Y-87165000D01*
X113692950Y-87165000D01*
X113911111Y-87143513D01*
X114122201Y-87079479D01*
X114122200Y-91720170D01*
X113983825Y-91858545D01*
X113911111Y-91836487D01*
X113692950Y-91815000D01*
X113547050Y-91815000D01*
X113328889Y-91836487D01*
X113328400Y-91836635D01*
X113328400Y-91820661D01*
X113288626Y-91620702D01*
X113210605Y-91432344D01*
X113097337Y-91262826D01*
X112953174Y-91118663D01*
X112783656Y-91005395D01*
X112595298Y-90927374D01*
X112395339Y-90887600D01*
X112191461Y-90887600D01*
X111991502Y-90927374D01*
X111803144Y-91005395D01*
X111633626Y-91118663D01*
X111589689Y-91162600D01*
X106314723Y-91162600D01*
X106277400Y-91158924D01*
X106240077Y-91162600D01*
X106240067Y-91162600D01*
X106128414Y-91173597D01*
X105985153Y-91217054D01*
X105853124Y-91287626D01*
X105737399Y-91382599D01*
X105713596Y-91411603D01*
X105489003Y-91636196D01*
X105459999Y-91659999D01*
X105427969Y-91699028D01*
X105365026Y-91775724D01*
X105345674Y-91811928D01*
X105150000Y-91811928D01*
X105025518Y-91824188D01*
X104905820Y-91860498D01*
X104795506Y-91919463D01*
X104698815Y-91998815D01*
X104619463Y-92095506D01*
X104560498Y-92205820D01*
X104524188Y-92325518D01*
X104511928Y-92450000D01*
X104511928Y-94150000D01*
X104524188Y-94274482D01*
X104560498Y-94394180D01*
X104619463Y-94504494D01*
X104698815Y-94601185D01*
X104795506Y-94680537D01*
X104905820Y-94739502D01*
X105025518Y-94775812D01*
X105150000Y-94788072D01*
X106850000Y-94788072D01*
X106974482Y-94775812D01*
X107094180Y-94739502D01*
X107204494Y-94680537D01*
X107301185Y-94601185D01*
X107380537Y-94504494D01*
X107439502Y-94394180D01*
X107460393Y-94325313D01*
X107484866Y-94355134D01*
X107710986Y-94540706D01*
X107778001Y-94576526D01*
X107778000Y-96503369D01*
X106370849Y-97910521D01*
X106341779Y-97934378D01*
X106317922Y-97963448D01*
X106317921Y-97963449D01*
X106246555Y-98050408D01*
X106175799Y-98182785D01*
X106132227Y-98326422D01*
X106117514Y-98475800D01*
X106121201Y-98513233D01*
X106121200Y-100007484D01*
X104923049Y-101205636D01*
X104893979Y-101229493D01*
X104870122Y-101258563D01*
X104870121Y-101258564D01*
X104798755Y-101345523D01*
X104768887Y-101401403D01*
X104727998Y-101477900D01*
X104684426Y-101621537D01*
X104684172Y-101624117D01*
X104631463Y-101676826D01*
X104518195Y-101846344D01*
X104440174Y-102034702D01*
X104400400Y-102234661D01*
X104400400Y-102438539D01*
X104440174Y-102638498D01*
X104518195Y-102826856D01*
X104631463Y-102996374D01*
X104775626Y-103140537D01*
X104945144Y-103253805D01*
X105133502Y-103331826D01*
X105333461Y-103371600D01*
X105537339Y-103371600D01*
X105737298Y-103331826D01*
X105925656Y-103253805D01*
X106070400Y-103157090D01*
X106215144Y-103253805D01*
X106403502Y-103331826D01*
X106603461Y-103371600D01*
X106807339Y-103371600D01*
X107007298Y-103331826D01*
X107195656Y-103253805D01*
X107353100Y-103148605D01*
X107510544Y-103253805D01*
X107698902Y-103331826D01*
X107898861Y-103371600D01*
X108102739Y-103371600D01*
X108302698Y-103331826D01*
X108491056Y-103253805D01*
X108642107Y-103152876D01*
X108755144Y-103228405D01*
X108943502Y-103306426D01*
X109143461Y-103346200D01*
X109347339Y-103346200D01*
X109547298Y-103306426D01*
X109735656Y-103228405D01*
X109905174Y-103115137D01*
X109947111Y-103073200D01*
X112192236Y-103073200D01*
X112497036Y-103378000D01*
X112385511Y-103378000D01*
X112343574Y-103336063D01*
X112174056Y-103222795D01*
X111985698Y-103144774D01*
X111785739Y-103105000D01*
X111581861Y-103105000D01*
X111381902Y-103144774D01*
X111193544Y-103222795D01*
X111024026Y-103336063D01*
X110879863Y-103480226D01*
X110766595Y-103649744D01*
X110688574Y-103838102D01*
X110648800Y-104038061D01*
X110648800Y-104241939D01*
X110688574Y-104441898D01*
X110766595Y-104630256D01*
X110879863Y-104799774D01*
X111024026Y-104943937D01*
X111193544Y-105057205D01*
X111381902Y-105135226D01*
X111581861Y-105175000D01*
X111785739Y-105175000D01*
X111985698Y-105135226D01*
X112172800Y-105057725D01*
X112172800Y-105257939D01*
X112212574Y-105457898D01*
X112290595Y-105646256D01*
X112403863Y-105815774D01*
X112548026Y-105959937D01*
X112717544Y-106073205D01*
X112905902Y-106151226D01*
X113105861Y-106191000D01*
X113309739Y-106191000D01*
X113509698Y-106151226D01*
X113698056Y-106073205D01*
X113823973Y-105989070D01*
X115566657Y-107731755D01*
X115566662Y-107731759D01*
X115779677Y-107944775D01*
X115803540Y-107973852D01*
X115919570Y-108069075D01*
X116051947Y-108139832D01*
X116195584Y-108183404D01*
X116307536Y-108194430D01*
X116307537Y-108194430D01*
X116344960Y-108198116D01*
X116382383Y-108194430D01*
X129563334Y-108194430D01*
X131101254Y-109732351D01*
X131125112Y-109761422D01*
X131154182Y-109785279D01*
X131193593Y-109817623D01*
X131324400Y-109948430D01*
X131324400Y-110007739D01*
X131364174Y-110207698D01*
X131442195Y-110396056D01*
X131555463Y-110565574D01*
X131699626Y-110709737D01*
X131869144Y-110823005D01*
X132057502Y-110901026D01*
X132257461Y-110940800D01*
X132461339Y-110940800D01*
X132661298Y-110901026D01*
X132849656Y-110823005D01*
X133019174Y-110709737D01*
X133163337Y-110565574D01*
X133276605Y-110396056D01*
X133354626Y-110207698D01*
X133394400Y-110007739D01*
X133394400Y-109803861D01*
X133354626Y-109603902D01*
X133276605Y-109415544D01*
X133163337Y-109246026D01*
X133019174Y-109101863D01*
X132849656Y-108988595D01*
X132661298Y-108910574D01*
X132461339Y-108870800D01*
X132402030Y-108870800D01*
X132238884Y-108707654D01*
X132216353Y-108680200D01*
X132359739Y-108680200D01*
X132559698Y-108640426D01*
X132748056Y-108562405D01*
X132917574Y-108449137D01*
X133061737Y-108304974D01*
X133175005Y-108135456D01*
X133253026Y-107947098D01*
X133292800Y-107747139D01*
X133292800Y-107543261D01*
X133253026Y-107343302D01*
X133175005Y-107154944D01*
X133061737Y-106985426D01*
X132917574Y-106841263D01*
X132904310Y-106832400D01*
X133515777Y-106832400D01*
X133553200Y-106836086D01*
X133590623Y-106832400D01*
X133590626Y-106832400D01*
X133654801Y-106826080D01*
X133654800Y-111418969D01*
X132780370Y-112293400D01*
X130236631Y-112293400D01*
X129794000Y-111850770D01*
X129794000Y-111264023D01*
X129797686Y-111226600D01*
X129792744Y-111176426D01*
X129782974Y-111077222D01*
X129739402Y-110933585D01*
X129690403Y-110841914D01*
X129668645Y-110801207D01*
X129625467Y-110748595D01*
X129573422Y-110685178D01*
X129544347Y-110661317D01*
X128886084Y-110003054D01*
X128862222Y-109973978D01*
X128746192Y-109878755D01*
X128613815Y-109807998D01*
X128470178Y-109764426D01*
X128358226Y-109753400D01*
X128358223Y-109753400D01*
X128320800Y-109749714D01*
X128283377Y-109753400D01*
X125785938Y-109753400D01*
X125748515Y-109749714D01*
X125711092Y-109753400D01*
X125711089Y-109753400D01*
X125599137Y-109764426D01*
X125455500Y-109807998D01*
X125412008Y-109831245D01*
X125323122Y-109878755D01*
X125263847Y-109927401D01*
X125207093Y-109973978D01*
X125183235Y-110003049D01*
X124481049Y-110705236D01*
X124451979Y-110729093D01*
X124428122Y-110758163D01*
X124428121Y-110758164D01*
X124356755Y-110845123D01*
X124330847Y-110893595D01*
X124300006Y-110951292D01*
X124213656Y-110893595D01*
X124025298Y-110815574D01*
X123825339Y-110775800D01*
X123621461Y-110775800D01*
X123421502Y-110815574D01*
X123233144Y-110893595D01*
X123063626Y-111006863D01*
X122919463Y-111151026D01*
X122806195Y-111320544D01*
X122728174Y-111508902D01*
X122688400Y-111708861D01*
X122688400Y-111912739D01*
X122728174Y-112112698D01*
X122806195Y-112301056D01*
X122919463Y-112470574D01*
X122972172Y-112523283D01*
X122972426Y-112525862D01*
X123015998Y-112669499D01*
X123036482Y-112707822D01*
X123074629Y-112779190D01*
X118220433Y-112779190D01*
X118183010Y-112775504D01*
X118145587Y-112779190D01*
X118145584Y-112779190D01*
X118033632Y-112790216D01*
X117889995Y-112833788D01*
X117834919Y-112863227D01*
X117757617Y-112904545D01*
X117694320Y-112956492D01*
X117641588Y-112999768D01*
X117617731Y-113028838D01*
X115711570Y-114935000D01*
X113472630Y-114935000D01*
X113284000Y-114746370D01*
X113284000Y-112537911D01*
X113325937Y-112495974D01*
X113439205Y-112326456D01*
X113517226Y-112138098D01*
X113557000Y-111938139D01*
X113557000Y-111734261D01*
X113517226Y-111534302D01*
X113439205Y-111345944D01*
X113325937Y-111176426D01*
X113181774Y-111032263D01*
X113012256Y-110918995D01*
X112823898Y-110840974D01*
X112623939Y-110801200D01*
X112420061Y-110801200D01*
X112220102Y-110840974D01*
X112031744Y-110918995D01*
X111906007Y-111003010D01*
X111742256Y-110893595D01*
X111553898Y-110815574D01*
X111353939Y-110775800D01*
X111150061Y-110775800D01*
X110950102Y-110815574D01*
X110761744Y-110893595D01*
X110592226Y-111006863D01*
X110448063Y-111151026D01*
X110334795Y-111320544D01*
X110256774Y-111508902D01*
X110217000Y-111708861D01*
X110217000Y-111912739D01*
X110256774Y-112112698D01*
X110334795Y-112301056D01*
X110448063Y-112470574D01*
X110490000Y-112512511D01*
X110490001Y-114624547D01*
X110486314Y-114661980D01*
X110501027Y-114811358D01*
X110544599Y-114954995D01*
X110615355Y-115087372D01*
X110681486Y-115167952D01*
X110710579Y-115203402D01*
X110739649Y-115227259D01*
X111437990Y-115925600D01*
X108550111Y-115925600D01*
X108533574Y-115909063D01*
X108364056Y-115795795D01*
X108175698Y-115717774D01*
X107975739Y-115678000D01*
X107823000Y-115678000D01*
X107823000Y-113701230D01*
X108729230Y-112795000D01*
X108788539Y-112795000D01*
X108988498Y-112755226D01*
X109176856Y-112677205D01*
X109346374Y-112563937D01*
X109490537Y-112419774D01*
X109603805Y-112250256D01*
X109681826Y-112061898D01*
X109721600Y-111861939D01*
X109721600Y-111658061D01*
X109681826Y-111458102D01*
X109603805Y-111269744D01*
X109490537Y-111100226D01*
X109346374Y-110956063D01*
X109176856Y-110842795D01*
X108988498Y-110764774D01*
X108788539Y-110725000D01*
X108584661Y-110725000D01*
X108384702Y-110764774D01*
X108196344Y-110842795D01*
X108026826Y-110956063D01*
X107882663Y-111100226D01*
X107769395Y-111269744D01*
X107691374Y-111458102D01*
X107651600Y-111658061D01*
X107651600Y-111717370D01*
X106548649Y-112820321D01*
X106519579Y-112844178D01*
X106495722Y-112873248D01*
X106495721Y-112873249D01*
X106424355Y-112960208D01*
X106353599Y-113092585D01*
X106310027Y-113236222D01*
X106295314Y-113385600D01*
X106299001Y-113423033D01*
X106299000Y-117793177D01*
X106295314Y-117830600D01*
X106299000Y-117868023D01*
X106299000Y-117868025D01*
X106310026Y-117979977D01*
X106353598Y-118123614D01*
X106367175Y-118149015D01*
X106424355Y-118255992D01*
X106458466Y-118297556D01*
X106519578Y-118372022D01*
X106548654Y-118395884D01*
X108016778Y-119864008D01*
X108016777Y-122812954D01*
X108013091Y-122850377D01*
X108016777Y-122887800D01*
X108016777Y-122887802D01*
X108027803Y-122999754D01*
X108071375Y-123143391D01*
X108099713Y-123196407D01*
X108142132Y-123275769D01*
X108179124Y-123320844D01*
X108237355Y-123391799D01*
X108266430Y-123415661D01*
X108984920Y-124134151D01*
X109008778Y-124163222D01*
X109037848Y-124187079D01*
X109124807Y-124258445D01*
X109194722Y-124295815D01*
X109257185Y-124329202D01*
X109400822Y-124372774D01*
X109507669Y-124383297D01*
X109400702Y-124404574D01*
X109212344Y-124482595D01*
X109042826Y-124595863D01*
X108898663Y-124740026D01*
X108785395Y-124909544D01*
X108707374Y-125097902D01*
X108667600Y-125297861D01*
X108667600Y-125501739D01*
X108707374Y-125701698D01*
X108785395Y-125890056D01*
X108898663Y-126059574D01*
X109042826Y-126203737D01*
X109212344Y-126317005D01*
X109279958Y-126345012D01*
X109207170Y-126417800D01*
X108831511Y-126417800D01*
X108787574Y-126373863D01*
X108618056Y-126260595D01*
X108429698Y-126182574D01*
X108229739Y-126142800D01*
X108025861Y-126142800D01*
X107825902Y-126182574D01*
X107637544Y-126260595D01*
X107468026Y-126373863D01*
X107323863Y-126518026D01*
X107210595Y-126687544D01*
X107132574Y-126875902D01*
X107092800Y-127075861D01*
X107092800Y-127279739D01*
X107132574Y-127479698D01*
X107210595Y-127668056D01*
X107323863Y-127837574D01*
X107468026Y-127981737D01*
X107637544Y-128095005D01*
X107825902Y-128173026D01*
X108025861Y-128212800D01*
X108229739Y-128212800D01*
X108429698Y-128173026D01*
X108618056Y-128095005D01*
X108787574Y-127981737D01*
X108831511Y-127937800D01*
X109390867Y-127937800D01*
X109411174Y-127939800D01*
X109487377Y-127939800D01*
X109524800Y-127943486D01*
X109562223Y-127939800D01*
X109562226Y-127939800D01*
X109674178Y-127928774D01*
X109817815Y-127885202D01*
X109950192Y-127814445D01*
X110066222Y-127719222D01*
X110090084Y-127690146D01*
X110764421Y-127015809D01*
X115621233Y-127015809D01*
X115658656Y-127019495D01*
X115696079Y-127015809D01*
X115696082Y-127015809D01*
X115808034Y-127004783D01*
X115951671Y-126961211D01*
X116084048Y-126890454D01*
X116200078Y-126795231D01*
X116223940Y-126766156D01*
X116701296Y-126288800D01*
X122374369Y-126288800D01*
X122349550Y-126370617D01*
X122336807Y-126500000D01*
X122340000Y-126532418D01*
X122340001Y-129340000D01*
X103660000Y-129340000D01*
X103660000Y-86530000D01*
X104511928Y-86530000D01*
X104524188Y-86654482D01*
X104560498Y-86774180D01*
X104619463Y-86884494D01*
X104698815Y-86981185D01*
X104795506Y-87060537D01*
X104905820Y-87119502D01*
X105025518Y-87155812D01*
X105150000Y-87168072D01*
X105714250Y-87165000D01*
X105873000Y-87006250D01*
X105873000Y-85807000D01*
X104673750Y-85807000D01*
X104515000Y-85965750D01*
X104511928Y-86530000D01*
X103660000Y-86530000D01*
X103660000Y-84830000D01*
X104511928Y-84830000D01*
X104515000Y-85394250D01*
X104673750Y-85553000D01*
X105873000Y-85553000D01*
X105873000Y-84353750D01*
X105714250Y-84195000D01*
X105150000Y-84191928D01*
X105025518Y-84204188D01*
X104905820Y-84240498D01*
X104795506Y-84299463D01*
X104698815Y-84378815D01*
X104619463Y-84475506D01*
X104560498Y-84585820D01*
X104524188Y-84705518D01*
X104511928Y-84830000D01*
X103660000Y-84830000D01*
X103660000Y-73850000D01*
X104511928Y-73850000D01*
X104524188Y-73974482D01*
X104560498Y-74094180D01*
X104619463Y-74204494D01*
X104698815Y-74301185D01*
X104795506Y-74380537D01*
X104905820Y-74439502D01*
X105025518Y-74475812D01*
X105150000Y-74488072D01*
X105714250Y-74485000D01*
X105873000Y-74326250D01*
X105873000Y-73127000D01*
X104673750Y-73127000D01*
X104515000Y-73285750D01*
X104511928Y-73850000D01*
X103660000Y-73850000D01*
X103660000Y-72150000D01*
X104511928Y-72150000D01*
X104515000Y-72714250D01*
X104673750Y-72873000D01*
X105873000Y-72873000D01*
X105873000Y-71673750D01*
X106127000Y-71673750D01*
X106127000Y-72873000D01*
X106147000Y-72873000D01*
X106147000Y-73127000D01*
X106127000Y-73127000D01*
X106127000Y-74326250D01*
X106285750Y-74485000D01*
X106850000Y-74488072D01*
X106974482Y-74475812D01*
X107094180Y-74439502D01*
X107204494Y-74380537D01*
X107301185Y-74301185D01*
X107380537Y-74204494D01*
X107439502Y-74094180D01*
X107460393Y-74025313D01*
X107484866Y-74055134D01*
X107710986Y-74240706D01*
X107968966Y-74378599D01*
X108248889Y-74463513D01*
X108467050Y-74485000D01*
X108612950Y-74485000D01*
X108831111Y-74463513D01*
X109111034Y-74378599D01*
X109369014Y-74240706D01*
X109595134Y-74055134D01*
X109780706Y-73829014D01*
X109810000Y-73774209D01*
X109839294Y-73829014D01*
X110024866Y-74055134D01*
X110250986Y-74240706D01*
X110508966Y-74378599D01*
X110788889Y-74463513D01*
X111007050Y-74485000D01*
X111152950Y-74485000D01*
X111371111Y-74463513D01*
X111651034Y-74378599D01*
X111909014Y-74240706D01*
X112135134Y-74055134D01*
X112320706Y-73829014D01*
X112350000Y-73774209D01*
X112379294Y-73829014D01*
X112564866Y-74055134D01*
X112790986Y-74240706D01*
X113048966Y-74378599D01*
X113328889Y-74463513D01*
X113547050Y-74485000D01*
X113692950Y-74485000D01*
X113911111Y-74463513D01*
X114191034Y-74378599D01*
X114449014Y-74240706D01*
X114675134Y-74055134D01*
X114860706Y-73829014D01*
X114890000Y-73774209D01*
X114919294Y-73829014D01*
X115104866Y-74055134D01*
X115330986Y-74240706D01*
X115588966Y-74378599D01*
X115868889Y-74463513D01*
X116087050Y-74485000D01*
X116232950Y-74485000D01*
X116451111Y-74463513D01*
X116731034Y-74378599D01*
X116989014Y-74240706D01*
X117215134Y-74055134D01*
X117400706Y-73829014D01*
X117430000Y-73774209D01*
X117459294Y-73829014D01*
X117644866Y-74055134D01*
X117870986Y-74240706D01*
X118128966Y-74378599D01*
X118408889Y-74463513D01*
X118627050Y-74485000D01*
X118772950Y-74485000D01*
X118991111Y-74463513D01*
X119271034Y-74378599D01*
X119529014Y-74240706D01*
X119755134Y-74055134D01*
X119940706Y-73829014D01*
X119970000Y-73774209D01*
X119999294Y-73829014D01*
X120184866Y-74055134D01*
X120410986Y-74240706D01*
X120668966Y-74378599D01*
X120948889Y-74463513D01*
X121167050Y-74485000D01*
X121312950Y-74485000D01*
X121531111Y-74463513D01*
X121811034Y-74378599D01*
X122069014Y-74240706D01*
X122295134Y-74055134D01*
X122480706Y-73829014D01*
X122510000Y-73774209D01*
X122539294Y-73829014D01*
X122724866Y-74055134D01*
X122950986Y-74240706D01*
X123208966Y-74378599D01*
X123488889Y-74463513D01*
X123707050Y-74485000D01*
X123852950Y-74485000D01*
X124071111Y-74463513D01*
X124351034Y-74378599D01*
X124609014Y-74240706D01*
X124835134Y-74055134D01*
X125020706Y-73829014D01*
X125050000Y-73774209D01*
X125079294Y-73829014D01*
X125264866Y-74055134D01*
X125490986Y-74240706D01*
X125748966Y-74378599D01*
X126028889Y-74463513D01*
X126247050Y-74485000D01*
X126392950Y-74485000D01*
X126611111Y-74463513D01*
X126891034Y-74378599D01*
X127149014Y-74240706D01*
X127375134Y-74055134D01*
X127560706Y-73829014D01*
X127698599Y-73571034D01*
X127783513Y-73291111D01*
X127812185Y-73000000D01*
X127783513Y-72708889D01*
X127698599Y-72428966D01*
X127560706Y-72170986D01*
X127375134Y-71944866D01*
X127149014Y-71759294D01*
X126891034Y-71621401D01*
X126611111Y-71536487D01*
X126392950Y-71515000D01*
X126247050Y-71515000D01*
X126028889Y-71536487D01*
X125748966Y-71621401D01*
X125490986Y-71759294D01*
X125264866Y-71944866D01*
X125079294Y-72170986D01*
X125050000Y-72225791D01*
X125020706Y-72170986D01*
X124835134Y-71944866D01*
X124609014Y-71759294D01*
X124351034Y-71621401D01*
X124071111Y-71536487D01*
X123852950Y-71515000D01*
X123707050Y-71515000D01*
X123488889Y-71536487D01*
X123208966Y-71621401D01*
X122950986Y-71759294D01*
X122724866Y-71944866D01*
X122539294Y-72170986D01*
X122510000Y-72225791D01*
X122480706Y-72170986D01*
X122295134Y-71944866D01*
X122069014Y-71759294D01*
X121811034Y-71621401D01*
X121531111Y-71536487D01*
X121312950Y-71515000D01*
X121167050Y-71515000D01*
X120948889Y-71536487D01*
X120668966Y-71621401D01*
X120410986Y-71759294D01*
X120184866Y-71944866D01*
X119999294Y-72170986D01*
X119970000Y-72225791D01*
X119940706Y-72170986D01*
X119755134Y-71944866D01*
X119529014Y-71759294D01*
X119271034Y-71621401D01*
X118991111Y-71536487D01*
X118772950Y-71515000D01*
X118627050Y-71515000D01*
X118408889Y-71536487D01*
X118128966Y-71621401D01*
X117870986Y-71759294D01*
X117644866Y-71944866D01*
X117459294Y-72170986D01*
X117430000Y-72225791D01*
X117400706Y-72170986D01*
X117215134Y-71944866D01*
X116989014Y-71759294D01*
X116731034Y-71621401D01*
X116451111Y-71536487D01*
X116232950Y-71515000D01*
X116087050Y-71515000D01*
X115868889Y-71536487D01*
X115588966Y-71621401D01*
X115330986Y-71759294D01*
X115104866Y-71944866D01*
X114919294Y-72170986D01*
X114890000Y-72225791D01*
X114860706Y-72170986D01*
X114675134Y-71944866D01*
X114449014Y-71759294D01*
X114191034Y-71621401D01*
X113911111Y-71536487D01*
X113692950Y-71515000D01*
X113547050Y-71515000D01*
X113328889Y-71536487D01*
X113048966Y-71621401D01*
X112790986Y-71759294D01*
X112564866Y-71944866D01*
X112379294Y-72170986D01*
X112350000Y-72225791D01*
X112320706Y-72170986D01*
X112135134Y-71944866D01*
X111909014Y-71759294D01*
X111651034Y-71621401D01*
X111371111Y-71536487D01*
X111152950Y-71515000D01*
X111007050Y-71515000D01*
X110788889Y-71536487D01*
X110508966Y-71621401D01*
X110250986Y-71759294D01*
X110024866Y-71944866D01*
X109839294Y-72170986D01*
X109810000Y-72225791D01*
X109780706Y-72170986D01*
X109595134Y-71944866D01*
X109369014Y-71759294D01*
X109111034Y-71621401D01*
X108831111Y-71536487D01*
X108612950Y-71515000D01*
X108467050Y-71515000D01*
X108248889Y-71536487D01*
X107968966Y-71621401D01*
X107710986Y-71759294D01*
X107484866Y-71944866D01*
X107460393Y-71974687D01*
X107439502Y-71905820D01*
X107380537Y-71795506D01*
X107301185Y-71698815D01*
X107204494Y-71619463D01*
X107094180Y-71560498D01*
X106974482Y-71524188D01*
X106850000Y-71511928D01*
X106285750Y-71515000D01*
X106127000Y-71673750D01*
X105873000Y-71673750D01*
X105714250Y-71515000D01*
X105150000Y-71511928D01*
X105025518Y-71524188D01*
X104905820Y-71560498D01*
X104795506Y-71619463D01*
X104698815Y-71698815D01*
X104619463Y-71795506D01*
X104560498Y-71905820D01*
X104524188Y-72025518D01*
X104511928Y-72150000D01*
X103660000Y-72150000D01*
X103660000Y-71410000D01*
X129340000Y-71410000D01*
X129340001Y-83217571D01*
G36*
X175590001Y-125840000D02*
G01*
X151652230Y-125840000D01*
X151996175Y-125496055D01*
X152068889Y-125518113D01*
X152287050Y-125539600D01*
X152432950Y-125539600D01*
X152651111Y-125518113D01*
X152931034Y-125433199D01*
X153189014Y-125295306D01*
X153415134Y-125109734D01*
X153600706Y-124883614D01*
X153630000Y-124828809D01*
X153659294Y-124883614D01*
X153844866Y-125109734D01*
X154070986Y-125295306D01*
X154328966Y-125433199D01*
X154608889Y-125518113D01*
X154827050Y-125539600D01*
X154972950Y-125539600D01*
X155191111Y-125518113D01*
X155471034Y-125433199D01*
X155729014Y-125295306D01*
X155955134Y-125109734D01*
X156140706Y-124883614D01*
X156170000Y-124828809D01*
X156199294Y-124883614D01*
X156384866Y-125109734D01*
X156610986Y-125295306D01*
X156868966Y-125433199D01*
X157148889Y-125518113D01*
X157367050Y-125539600D01*
X157512950Y-125539600D01*
X157731111Y-125518113D01*
X158011034Y-125433199D01*
X158269014Y-125295306D01*
X158495134Y-125109734D01*
X158680706Y-124883614D01*
X158710000Y-124828809D01*
X158739294Y-124883614D01*
X158924866Y-125109734D01*
X159150986Y-125295306D01*
X159408966Y-125433199D01*
X159688889Y-125518113D01*
X159907050Y-125539600D01*
X160052950Y-125539600D01*
X160271111Y-125518113D01*
X160551034Y-125433199D01*
X160809014Y-125295306D01*
X161035134Y-125109734D01*
X161220706Y-124883614D01*
X161250000Y-124828809D01*
X161279294Y-124883614D01*
X161464866Y-125109734D01*
X161690986Y-125295306D01*
X161948966Y-125433199D01*
X162228889Y-125518113D01*
X162447050Y-125539600D01*
X162592950Y-125539600D01*
X162811111Y-125518113D01*
X163091034Y-125433199D01*
X163349014Y-125295306D01*
X163575134Y-125109734D01*
X163760706Y-124883614D01*
X163795201Y-124819077D01*
X163864822Y-124935955D01*
X164059731Y-125152188D01*
X164293080Y-125326241D01*
X164555901Y-125451425D01*
X164703110Y-125496076D01*
X164933000Y-125374755D01*
X164933000Y-124181600D01*
X165187000Y-124181600D01*
X165187000Y-125374755D01*
X165416890Y-125496076D01*
X165564099Y-125451425D01*
X165826920Y-125326241D01*
X166060269Y-125152188D01*
X166255178Y-124935955D01*
X166330000Y-124810345D01*
X166404822Y-124935955D01*
X166599731Y-125152188D01*
X166833080Y-125326241D01*
X167095901Y-125451425D01*
X167243110Y-125496076D01*
X167473000Y-125374755D01*
X167473000Y-124181600D01*
X167727000Y-124181600D01*
X167727000Y-125374755D01*
X167956890Y-125496076D01*
X168104099Y-125451425D01*
X168366920Y-125326241D01*
X168600269Y-125152188D01*
X168795178Y-124935955D01*
X168870000Y-124810345D01*
X168944822Y-124935955D01*
X169139731Y-125152188D01*
X169373080Y-125326241D01*
X169635901Y-125451425D01*
X169783110Y-125496076D01*
X170013000Y-125374755D01*
X170013000Y-124181600D01*
X170267000Y-124181600D01*
X170267000Y-125374755D01*
X170496890Y-125496076D01*
X170644099Y-125451425D01*
X170906920Y-125326241D01*
X171140269Y-125152188D01*
X171335178Y-124935955D01*
X171410000Y-124810345D01*
X171484822Y-124935955D01*
X171679731Y-125152188D01*
X171913080Y-125326241D01*
X172175901Y-125451425D01*
X172323110Y-125496076D01*
X172553000Y-125374755D01*
X172553000Y-124181600D01*
X172807000Y-124181600D01*
X172807000Y-125374755D01*
X173036890Y-125496076D01*
X173184099Y-125451425D01*
X173446920Y-125326241D01*
X173680269Y-125152188D01*
X173875178Y-124935955D01*
X174024157Y-124685852D01*
X174121481Y-124411491D01*
X174000814Y-124181600D01*
X172807000Y-124181600D01*
X172553000Y-124181600D01*
X170267000Y-124181600D01*
X170013000Y-124181600D01*
X167727000Y-124181600D01*
X167473000Y-124181600D01*
X165187000Y-124181600D01*
X164933000Y-124181600D01*
X164913000Y-124181600D01*
X164913000Y-123927600D01*
X164933000Y-123927600D01*
X164933000Y-123907600D01*
X165187000Y-123907600D01*
X165187000Y-123927600D01*
X167473000Y-123927600D01*
X167473000Y-123907600D01*
X167727000Y-123907600D01*
X167727000Y-123927600D01*
X170013000Y-123927600D01*
X170013000Y-123907600D01*
X170267000Y-123907600D01*
X170267000Y-123927600D01*
X172553000Y-123927600D01*
X172553000Y-123907600D01*
X172807000Y-123907600D01*
X172807000Y-123927600D01*
X174000814Y-123927600D01*
X174121481Y-123697709D01*
X174024157Y-123423348D01*
X174016322Y-123410194D01*
X174077616Y-123391601D01*
X174209993Y-123320844D01*
X174326023Y-123225621D01*
X174349885Y-123196545D01*
X175111947Y-122434483D01*
X175141022Y-122410622D01*
X175204203Y-122333636D01*
X175236245Y-122294593D01*
X175280827Y-122211185D01*
X175307002Y-122162215D01*
X175350574Y-122018578D01*
X175361600Y-121906626D01*
X175361600Y-121906623D01*
X175365286Y-121869200D01*
X175361600Y-121831777D01*
X175361600Y-118508898D01*
X175590000Y-118280498D01*
X175590001Y-125840000D01*
X175590001Y-125840000D01*
G37*
X175590001Y-125840000D02*
X151652230Y-125840000D01*
X151996175Y-125496055D01*
X152068889Y-125518113D01*
X152287050Y-125539600D01*
X152432950Y-125539600D01*
X152651111Y-125518113D01*
X152931034Y-125433199D01*
X153189014Y-125295306D01*
X153415134Y-125109734D01*
X153600706Y-124883614D01*
X153630000Y-124828809D01*
X153659294Y-124883614D01*
X153844866Y-125109734D01*
X154070986Y-125295306D01*
X154328966Y-125433199D01*
X154608889Y-125518113D01*
X154827050Y-125539600D01*
X154972950Y-125539600D01*
X155191111Y-125518113D01*
X155471034Y-125433199D01*
X155729014Y-125295306D01*
X155955134Y-125109734D01*
X156140706Y-124883614D01*
X156170000Y-124828809D01*
X156199294Y-124883614D01*
X156384866Y-125109734D01*
X156610986Y-125295306D01*
X156868966Y-125433199D01*
X157148889Y-125518113D01*
X157367050Y-125539600D01*
X157512950Y-125539600D01*
X157731111Y-125518113D01*
X158011034Y-125433199D01*
X158269014Y-125295306D01*
X158495134Y-125109734D01*
X158680706Y-124883614D01*
X158710000Y-124828809D01*
X158739294Y-124883614D01*
X158924866Y-125109734D01*
X159150986Y-125295306D01*
X159408966Y-125433199D01*
X159688889Y-125518113D01*
X159907050Y-125539600D01*
X160052950Y-125539600D01*
X160271111Y-125518113D01*
X160551034Y-125433199D01*
X160809014Y-125295306D01*
X161035134Y-125109734D01*
X161220706Y-124883614D01*
X161250000Y-124828809D01*
X161279294Y-124883614D01*
X161464866Y-125109734D01*
X161690986Y-125295306D01*
X161948966Y-125433199D01*
X162228889Y-125518113D01*
X162447050Y-125539600D01*
X162592950Y-125539600D01*
X162811111Y-125518113D01*
X163091034Y-125433199D01*
X163349014Y-125295306D01*
X163575134Y-125109734D01*
X163760706Y-124883614D01*
X163795201Y-124819077D01*
X163864822Y-124935955D01*
X164059731Y-125152188D01*
X164293080Y-125326241D01*
X164555901Y-125451425D01*
X164703110Y-125496076D01*
X164933000Y-125374755D01*
X164933000Y-124181600D01*
X165187000Y-124181600D01*
X165187000Y-125374755D01*
X165416890Y-125496076D01*
X165564099Y-125451425D01*
X165826920Y-125326241D01*
X166060269Y-125152188D01*
X166255178Y-124935955D01*
X166330000Y-124810345D01*
X166404822Y-124935955D01*
X166599731Y-125152188D01*
X166833080Y-125326241D01*
X167095901Y-125451425D01*
X167243110Y-125496076D01*
X167473000Y-125374755D01*
X167473000Y-124181600D01*
X167727000Y-124181600D01*
X167727000Y-125374755D01*
X167956890Y-125496076D01*
X168104099Y-125451425D01*
X168366920Y-125326241D01*
X168600269Y-125152188D01*
X168795178Y-124935955D01*
X168870000Y-124810345D01*
X168944822Y-124935955D01*
X169139731Y-125152188D01*
X169373080Y-125326241D01*
X169635901Y-125451425D01*
X169783110Y-125496076D01*
X170013000Y-125374755D01*
X170013000Y-124181600D01*
X170267000Y-124181600D01*
X170267000Y-125374755D01*
X170496890Y-125496076D01*
X170644099Y-125451425D01*
X170906920Y-125326241D01*
X171140269Y-125152188D01*
X171335178Y-124935955D01*
X171410000Y-124810345D01*
X171484822Y-124935955D01*
X171679731Y-125152188D01*
X171913080Y-125326241D01*
X172175901Y-125451425D01*
X172323110Y-125496076D01*
X172553000Y-125374755D01*
X172553000Y-124181600D01*
X172807000Y-124181600D01*
X172807000Y-125374755D01*
X173036890Y-125496076D01*
X173184099Y-125451425D01*
X173446920Y-125326241D01*
X173680269Y-125152188D01*
X173875178Y-124935955D01*
X174024157Y-124685852D01*
X174121481Y-124411491D01*
X174000814Y-124181600D01*
X172807000Y-124181600D01*
X172553000Y-124181600D01*
X170267000Y-124181600D01*
X170013000Y-124181600D01*
X167727000Y-124181600D01*
X167473000Y-124181600D01*
X165187000Y-124181600D01*
X164933000Y-124181600D01*
X164913000Y-124181600D01*
X164913000Y-123927600D01*
X164933000Y-123927600D01*
X164933000Y-123907600D01*
X165187000Y-123907600D01*
X165187000Y-123927600D01*
X167473000Y-123927600D01*
X167473000Y-123907600D01*
X167727000Y-123907600D01*
X167727000Y-123927600D01*
X170013000Y-123927600D01*
X170013000Y-123907600D01*
X170267000Y-123907600D01*
X170267000Y-123927600D01*
X172553000Y-123927600D01*
X172553000Y-123907600D01*
X172807000Y-123907600D01*
X172807000Y-123927600D01*
X174000814Y-123927600D01*
X174121481Y-123697709D01*
X174024157Y-123423348D01*
X174016322Y-123410194D01*
X174077616Y-123391601D01*
X174209993Y-123320844D01*
X174326023Y-123225621D01*
X174349885Y-123196545D01*
X175111947Y-122434483D01*
X175141022Y-122410622D01*
X175204203Y-122333636D01*
X175236245Y-122294593D01*
X175280827Y-122211185D01*
X175307002Y-122162215D01*
X175350574Y-122018578D01*
X175361600Y-121906626D01*
X175361600Y-121906623D01*
X175365286Y-121869200D01*
X175361600Y-121831777D01*
X175361600Y-118508898D01*
X175590000Y-118280498D01*
X175590001Y-125840000D01*
G36*
X173837600Y-121553570D02*
G01*
X173468971Y-121922199D01*
X164727631Y-121922199D01*
X163146286Y-120340854D01*
X163122424Y-120311778D01*
X163006394Y-120216555D01*
X162874017Y-120145798D01*
X162730380Y-120102226D01*
X162618428Y-120091200D01*
X162618425Y-120091200D01*
X162581002Y-120087514D01*
X162543579Y-120091200D01*
X153350630Y-120091200D01*
X153909430Y-119532400D01*
X173342977Y-119532400D01*
X173380400Y-119536086D01*
X173417823Y-119532400D01*
X173417826Y-119532400D01*
X173529778Y-119521374D01*
X173673415Y-119477802D01*
X173805792Y-119407045D01*
X173837601Y-119380940D01*
X173837600Y-121553570D01*
X173837600Y-121553570D01*
G37*
X173837600Y-121553570D02*
X173468971Y-121922199D01*
X164727631Y-121922199D01*
X163146286Y-120340854D01*
X163122424Y-120311778D01*
X163006394Y-120216555D01*
X162874017Y-120145798D01*
X162730380Y-120102226D01*
X162618428Y-120091200D01*
X162618425Y-120091200D01*
X162581002Y-120087514D01*
X162543579Y-120091200D01*
X153350630Y-120091200D01*
X153909430Y-119532400D01*
X173342977Y-119532400D01*
X173380400Y-119536086D01*
X173417823Y-119532400D01*
X173417826Y-119532400D01*
X173529778Y-119521374D01*
X173673415Y-119477802D01*
X173805792Y-119407045D01*
X173837601Y-119380940D01*
X173837600Y-121553570D01*
G36*
X170267000Y-116307600D02*
G01*
X172553000Y-116307600D01*
X172553000Y-116287600D01*
X172807000Y-116287600D01*
X172807000Y-116307600D01*
X172827000Y-116307600D01*
X172827000Y-116561600D01*
X172807000Y-116561600D01*
X172807000Y-116581600D01*
X172553000Y-116581600D01*
X172553000Y-116561600D01*
X170267000Y-116561600D01*
X170267000Y-116581600D01*
X170013000Y-116581600D01*
X170013000Y-116561600D01*
X169993000Y-116561600D01*
X169993000Y-116307600D01*
X170013000Y-116307600D01*
X170013000Y-116287600D01*
X170267000Y-116287600D01*
X170267000Y-116307600D01*
X170267000Y-116307600D01*
G37*
X170267000Y-116307600D02*
X172553000Y-116307600D01*
X172553000Y-116287600D01*
X172807000Y-116287600D01*
X172807000Y-116307600D01*
X172827000Y-116307600D01*
X172827000Y-116561600D01*
X172807000Y-116561600D01*
X172807000Y-116581600D01*
X172553000Y-116581600D01*
X172553000Y-116561600D01*
X170267000Y-116561600D01*
X170267000Y-116581600D01*
X170013000Y-116581600D01*
X170013000Y-116561600D01*
X169993000Y-116561600D01*
X169993000Y-116307600D01*
X170013000Y-116307600D01*
X170013000Y-116287600D01*
X170267000Y-116287600D01*
X170267000Y-116307600D01*
G36*
X148590000Y-103032418D02*
G01*
X148590001Y-103032428D01*
X148590000Y-107648390D01*
X148167032Y-107648390D01*
X148129609Y-107644704D01*
X148092186Y-107648390D01*
X148092184Y-107648390D01*
X147980232Y-107659416D01*
X147836595Y-107702988D01*
X147704218Y-107773745D01*
X147588188Y-107868968D01*
X147564330Y-107898039D01*
X146833053Y-108629316D01*
X146803978Y-108653178D01*
X146762757Y-108703407D01*
X146708755Y-108769208D01*
X146695179Y-108794607D01*
X146637998Y-108901586D01*
X146594426Y-109045223D01*
X146585861Y-109132192D01*
X146579714Y-109194600D01*
X146583400Y-109232023D01*
X146583401Y-111520568D01*
X145254960Y-112849010D01*
X134380021Y-112849010D01*
X134929153Y-112299878D01*
X134958222Y-112276022D01*
X135053445Y-112159992D01*
X135115873Y-112043198D01*
X135124201Y-112027617D01*
X135124500Y-112026632D01*
X135167774Y-111883978D01*
X135178800Y-111772026D01*
X135178800Y-111772024D01*
X135182486Y-111734601D01*
X135178800Y-111697178D01*
X135178800Y-111431090D01*
X136378924Y-111431090D01*
X136423575Y-111578299D01*
X136548759Y-111841120D01*
X136722812Y-112074469D01*
X136939045Y-112269378D01*
X137189148Y-112418357D01*
X137463509Y-112515681D01*
X137693400Y-112395014D01*
X137693400Y-111201200D01*
X136500245Y-111201200D01*
X136378924Y-111431090D01*
X135178800Y-111431090D01*
X135178800Y-108891090D01*
X136378924Y-108891090D01*
X136423575Y-109038299D01*
X136548759Y-109301120D01*
X136722812Y-109534469D01*
X136939045Y-109729378D01*
X137064655Y-109804200D01*
X136939045Y-109879022D01*
X136722812Y-110073931D01*
X136548759Y-110307280D01*
X136423575Y-110570101D01*
X136378924Y-110717310D01*
X136500245Y-110947200D01*
X137693400Y-110947200D01*
X137693400Y-108661200D01*
X136500245Y-108661200D01*
X136378924Y-108891090D01*
X135178800Y-108891090D01*
X135178800Y-108177310D01*
X136378924Y-108177310D01*
X136500245Y-108407200D01*
X137693400Y-108407200D01*
X137693400Y-107213386D01*
X137947400Y-107213386D01*
X137947400Y-108407200D01*
X137967400Y-108407200D01*
X137967400Y-108661200D01*
X137947400Y-108661200D01*
X137947400Y-110947200D01*
X137967400Y-110947200D01*
X137967400Y-111201200D01*
X137947400Y-111201200D01*
X137947400Y-112395014D01*
X138177291Y-112515681D01*
X138451652Y-112418357D01*
X138701755Y-112269378D01*
X138897902Y-112092574D01*
X138920898Y-112168380D01*
X138979863Y-112278694D01*
X139059215Y-112375385D01*
X139155906Y-112454737D01*
X139266220Y-112513702D01*
X139385918Y-112550012D01*
X139510400Y-112562272D01*
X141210400Y-112562272D01*
X141334882Y-112550012D01*
X141454580Y-112513702D01*
X141564894Y-112454737D01*
X141661585Y-112375385D01*
X141740937Y-112278694D01*
X141799902Y-112168380D01*
X141836212Y-112048682D01*
X141848472Y-111924200D01*
X141848472Y-110224200D01*
X141836212Y-110099718D01*
X141799902Y-109980020D01*
X141740937Y-109869706D01*
X141661585Y-109773015D01*
X141564894Y-109693663D01*
X141454580Y-109634698D01*
X141385713Y-109613807D01*
X141415534Y-109589334D01*
X141601106Y-109363214D01*
X141738999Y-109105234D01*
X141823913Y-108825311D01*
X141852585Y-108534200D01*
X141823913Y-108243089D01*
X141738999Y-107963166D01*
X141601106Y-107705186D01*
X141415534Y-107479066D01*
X141189414Y-107293494D01*
X140931434Y-107155601D01*
X140651511Y-107070687D01*
X140433350Y-107049200D01*
X140287450Y-107049200D01*
X140069289Y-107070687D01*
X139789366Y-107155601D01*
X139531386Y-107293494D01*
X139305266Y-107479066D01*
X139119694Y-107705186D01*
X139088816Y-107762956D01*
X138917988Y-107533931D01*
X138701755Y-107339022D01*
X138451652Y-107190043D01*
X138177291Y-107092719D01*
X137947400Y-107213386D01*
X137693400Y-107213386D01*
X137463509Y-107092719D01*
X137189148Y-107190043D01*
X136939045Y-107339022D01*
X136722812Y-107533931D01*
X136548759Y-107767280D01*
X136423575Y-108030101D01*
X136378924Y-108177310D01*
X135178800Y-108177310D01*
X135178800Y-106164496D01*
X137127097Y-104216200D01*
X141008777Y-104216200D01*
X141046200Y-104219886D01*
X141083623Y-104216200D01*
X141083626Y-104216200D01*
X141195578Y-104205174D01*
X141339215Y-104161602D01*
X141471592Y-104090845D01*
X141587622Y-103995622D01*
X141611484Y-103966546D01*
X141837947Y-103740083D01*
X141867022Y-103716222D01*
X141962245Y-103600192D01*
X142033002Y-103467815D01*
X142076574Y-103324178D01*
X142087600Y-103212226D01*
X142087600Y-103212224D01*
X142091286Y-103174801D01*
X142087600Y-103137378D01*
X142087600Y-101840623D01*
X142091286Y-101803200D01*
X142087454Y-101764290D01*
X142076574Y-101653822D01*
X142033002Y-101510185D01*
X141985150Y-101420660D01*
X141962245Y-101377807D01*
X141890879Y-101290848D01*
X141867022Y-101261778D01*
X141837952Y-101237921D01*
X140062084Y-99462054D01*
X140038222Y-99432978D01*
X139922192Y-99337755D01*
X139789815Y-99266998D01*
X139646178Y-99223426D01*
X139534226Y-99212400D01*
X139534223Y-99212400D01*
X139496800Y-99208714D01*
X139459377Y-99212400D01*
X135995024Y-99212400D01*
X135918205Y-99026944D01*
X135804937Y-98857426D01*
X135660774Y-98713263D01*
X135491256Y-98599995D01*
X135302898Y-98521974D01*
X135102939Y-98482200D01*
X134899061Y-98482200D01*
X134699102Y-98521974D01*
X134510744Y-98599995D01*
X134341226Y-98713263D01*
X134197063Y-98857426D01*
X134083795Y-99026944D01*
X134005774Y-99215302D01*
X133966000Y-99415261D01*
X133966000Y-99619139D01*
X134005774Y-99819098D01*
X134083795Y-100007456D01*
X134197063Y-100176974D01*
X134341226Y-100321137D01*
X134510744Y-100434405D01*
X134586324Y-100465711D01*
X134114029Y-100938007D01*
X134084959Y-100961864D01*
X134061102Y-100990934D01*
X134061101Y-100990935D01*
X133989735Y-101077894D01*
X133918979Y-101210271D01*
X133875407Y-101353908D01*
X133860694Y-101503286D01*
X133864381Y-101540719D01*
X133864380Y-102684561D01*
X132608952Y-103939990D01*
X120841821Y-103939990D01*
X120167400Y-103265570D01*
X120167400Y-103068098D01*
X120274945Y-103125582D01*
X120471251Y-103185130D01*
X120675400Y-103205237D01*
X120879549Y-103185130D01*
X121075855Y-103125582D01*
X121256769Y-103028881D01*
X121375611Y-102931350D01*
X122721814Y-101585148D01*
X122761543Y-101552543D01*
X122795466Y-101511209D01*
X122891681Y-101393970D01*
X122988382Y-101213056D01*
X122993460Y-101196316D01*
X123047931Y-101016750D01*
X123063000Y-100863752D01*
X123063000Y-100863742D01*
X123068037Y-100812601D01*
X123063000Y-100761459D01*
X123063000Y-97408561D01*
X123824562Y-96647000D01*
X125165340Y-96647000D01*
X125216481Y-96652037D01*
X125267622Y-96647000D01*
X125267633Y-96647000D01*
X125420631Y-96631931D01*
X125616935Y-96572383D01*
X125797851Y-96475681D01*
X125956424Y-96345543D01*
X125989033Y-96305809D01*
X126923800Y-95371042D01*
X126923800Y-99023769D01*
X125700249Y-100247321D01*
X125671179Y-100271178D01*
X125647322Y-100300248D01*
X125647321Y-100300249D01*
X125575955Y-100387208D01*
X125505199Y-100519585D01*
X125461627Y-100663222D01*
X125446914Y-100812600D01*
X125450601Y-100850033D01*
X125450600Y-101660289D01*
X125408663Y-101702226D01*
X125295395Y-101871744D01*
X125217374Y-102060102D01*
X125177600Y-102260061D01*
X125177600Y-102463939D01*
X125217374Y-102663898D01*
X125295395Y-102852256D01*
X125408663Y-103021774D01*
X125552826Y-103165937D01*
X125722344Y-103279205D01*
X125910702Y-103357226D01*
X126110661Y-103397000D01*
X126314539Y-103397000D01*
X126514498Y-103357226D01*
X126702856Y-103279205D01*
X126812220Y-103206131D01*
X126822826Y-103216737D01*
X126992344Y-103330005D01*
X127180702Y-103408026D01*
X127380661Y-103447800D01*
X127584539Y-103447800D01*
X127784498Y-103408026D01*
X127972856Y-103330005D01*
X128117600Y-103233290D01*
X128262344Y-103330005D01*
X128450702Y-103408026D01*
X128650661Y-103447800D01*
X128854539Y-103447800D01*
X129054498Y-103408026D01*
X129242856Y-103330005D01*
X129412374Y-103216737D01*
X129418952Y-103210159D01*
X129567904Y-103309685D01*
X129756262Y-103387706D01*
X129956221Y-103427480D01*
X130160099Y-103427480D01*
X130360058Y-103387706D01*
X130548416Y-103309685D01*
X130717934Y-103196417D01*
X130720374Y-103193977D01*
X130787104Y-103238565D01*
X130975462Y-103316586D01*
X131175421Y-103356360D01*
X131379299Y-103356360D01*
X131579258Y-103316586D01*
X131767616Y-103238565D01*
X131937134Y-103125297D01*
X132081297Y-102981134D01*
X132194565Y-102811616D01*
X132272586Y-102623258D01*
X132312360Y-102423299D01*
X132312360Y-102219421D01*
X132272586Y-102019462D01*
X132194565Y-101831104D01*
X132081297Y-101661586D01*
X131937134Y-101517423D01*
X131767616Y-101404155D01*
X131579258Y-101326134D01*
X131379299Y-101286360D01*
X131319990Y-101286360D01*
X131033520Y-100999890D01*
X131033520Y-95662151D01*
X131075457Y-95620214D01*
X131188725Y-95450696D01*
X131266746Y-95262338D01*
X131306520Y-95062379D01*
X131306520Y-94858501D01*
X131266746Y-94658542D01*
X131214833Y-94533214D01*
X131315862Y-94450302D01*
X131339724Y-94421226D01*
X135778419Y-89982532D01*
X135785595Y-89999856D01*
X135898863Y-90169374D01*
X136043026Y-90313537D01*
X136212544Y-90426805D01*
X136400902Y-90504826D01*
X136600861Y-90544600D01*
X136804739Y-90544600D01*
X137004698Y-90504826D01*
X137193056Y-90426805D01*
X137362574Y-90313537D01*
X137404511Y-90271600D01*
X138062377Y-90271600D01*
X138099800Y-90275286D01*
X138137223Y-90271600D01*
X138137226Y-90271600D01*
X138249178Y-90260574D01*
X138392815Y-90217002D01*
X138525192Y-90146245D01*
X138641222Y-90051022D01*
X138665084Y-90021946D01*
X142066101Y-86620929D01*
X142080859Y-86633040D01*
X141996528Y-86702248D01*
X141832825Y-86901722D01*
X141711182Y-87129299D01*
X141636275Y-87376235D01*
X141610982Y-87633040D01*
X141636275Y-87889845D01*
X141711182Y-88136781D01*
X141832825Y-88364358D01*
X141996528Y-88563832D01*
X142080859Y-88633040D01*
X141996528Y-88702248D01*
X141832825Y-88901722D01*
X141711182Y-89129299D01*
X141636275Y-89376235D01*
X141610982Y-89633040D01*
X141636275Y-89889845D01*
X141711182Y-90136781D01*
X141832825Y-90364358D01*
X141996528Y-90563832D01*
X142080859Y-90633040D01*
X141996528Y-90702248D01*
X141832825Y-90901722D01*
X141711182Y-91129299D01*
X141636275Y-91376235D01*
X141610982Y-91633040D01*
X141636275Y-91889845D01*
X141711182Y-92136781D01*
X141832825Y-92364358D01*
X141996528Y-92563832D01*
X142196002Y-92727535D01*
X142423579Y-92849178D01*
X142670515Y-92924085D01*
X142862969Y-92943040D01*
X142991671Y-92943040D01*
X143184125Y-92924085D01*
X143431061Y-92849178D01*
X143658638Y-92727535D01*
X143728246Y-92670409D01*
X143801135Y-92759225D01*
X143897826Y-92838577D01*
X144008140Y-92897542D01*
X144127838Y-92933852D01*
X144252320Y-92946112D01*
X145602320Y-92946112D01*
X145726802Y-92933852D01*
X145846500Y-92897542D01*
X145956814Y-92838577D01*
X146053505Y-92759225D01*
X146132857Y-92662534D01*
X146191822Y-92552220D01*
X146228132Y-92432522D01*
X146240392Y-92308040D01*
X146240392Y-90958040D01*
X146228132Y-90833558D01*
X146191822Y-90713860D01*
X146132857Y-90603546D01*
X146053505Y-90506855D01*
X145964689Y-90433966D01*
X146021815Y-90364358D01*
X146143458Y-90136781D01*
X146218365Y-89889845D01*
X146243658Y-89633040D01*
X146218365Y-89376235D01*
X146143458Y-89129299D01*
X146021815Y-88901722D01*
X145858112Y-88702248D01*
X145773781Y-88633040D01*
X145858112Y-88563832D01*
X146021815Y-88364358D01*
X146143458Y-88136781D01*
X146218365Y-87889845D01*
X146243658Y-87633040D01*
X146218365Y-87376235D01*
X146143458Y-87129299D01*
X146021815Y-86901722D01*
X145858112Y-86702248D01*
X145773781Y-86633040D01*
X145858112Y-86563832D01*
X146021815Y-86364358D01*
X146143458Y-86136781D01*
X146218365Y-85889845D01*
X146243658Y-85633040D01*
X146218365Y-85376235D01*
X146143458Y-85129299D01*
X146021815Y-84901722D01*
X145858112Y-84702248D01*
X145658638Y-84538545D01*
X145431061Y-84416902D01*
X145184125Y-84341995D01*
X145084581Y-84332191D01*
X144662390Y-83910000D01*
X148590001Y-83910000D01*
X148590000Y-103032418D01*
X148590000Y-103032418D01*
G37*
X148590000Y-103032418D02*
X148590001Y-103032428D01*
X148590000Y-107648390D01*
X148167032Y-107648390D01*
X148129609Y-107644704D01*
X148092186Y-107648390D01*
X148092184Y-107648390D01*
X147980232Y-107659416D01*
X147836595Y-107702988D01*
X147704218Y-107773745D01*
X147588188Y-107868968D01*
X147564330Y-107898039D01*
X146833053Y-108629316D01*
X146803978Y-108653178D01*
X146762757Y-108703407D01*
X146708755Y-108769208D01*
X146695179Y-108794607D01*
X146637998Y-108901586D01*
X146594426Y-109045223D01*
X146585861Y-109132192D01*
X146579714Y-109194600D01*
X146583400Y-109232023D01*
X146583401Y-111520568D01*
X145254960Y-112849010D01*
X134380021Y-112849010D01*
X134929153Y-112299878D01*
X134958222Y-112276022D01*
X135053445Y-112159992D01*
X135115873Y-112043198D01*
X135124201Y-112027617D01*
X135124500Y-112026632D01*
X135167774Y-111883978D01*
X135178800Y-111772026D01*
X135178800Y-111772024D01*
X135182486Y-111734601D01*
X135178800Y-111697178D01*
X135178800Y-111431090D01*
X136378924Y-111431090D01*
X136423575Y-111578299D01*
X136548759Y-111841120D01*
X136722812Y-112074469D01*
X136939045Y-112269378D01*
X137189148Y-112418357D01*
X137463509Y-112515681D01*
X137693400Y-112395014D01*
X137693400Y-111201200D01*
X136500245Y-111201200D01*
X136378924Y-111431090D01*
X135178800Y-111431090D01*
X135178800Y-108891090D01*
X136378924Y-108891090D01*
X136423575Y-109038299D01*
X136548759Y-109301120D01*
X136722812Y-109534469D01*
X136939045Y-109729378D01*
X137064655Y-109804200D01*
X136939045Y-109879022D01*
X136722812Y-110073931D01*
X136548759Y-110307280D01*
X136423575Y-110570101D01*
X136378924Y-110717310D01*
X136500245Y-110947200D01*
X137693400Y-110947200D01*
X137693400Y-108661200D01*
X136500245Y-108661200D01*
X136378924Y-108891090D01*
X135178800Y-108891090D01*
X135178800Y-108177310D01*
X136378924Y-108177310D01*
X136500245Y-108407200D01*
X137693400Y-108407200D01*
X137693400Y-107213386D01*
X137947400Y-107213386D01*
X137947400Y-108407200D01*
X137967400Y-108407200D01*
X137967400Y-108661200D01*
X137947400Y-108661200D01*
X137947400Y-110947200D01*
X137967400Y-110947200D01*
X137967400Y-111201200D01*
X137947400Y-111201200D01*
X137947400Y-112395014D01*
X138177291Y-112515681D01*
X138451652Y-112418357D01*
X138701755Y-112269378D01*
X138897902Y-112092574D01*
X138920898Y-112168380D01*
X138979863Y-112278694D01*
X139059215Y-112375385D01*
X139155906Y-112454737D01*
X139266220Y-112513702D01*
X139385918Y-112550012D01*
X139510400Y-112562272D01*
X141210400Y-112562272D01*
X141334882Y-112550012D01*
X141454580Y-112513702D01*
X141564894Y-112454737D01*
X141661585Y-112375385D01*
X141740937Y-112278694D01*
X141799902Y-112168380D01*
X141836212Y-112048682D01*
X141848472Y-111924200D01*
X141848472Y-110224200D01*
X141836212Y-110099718D01*
X141799902Y-109980020D01*
X141740937Y-109869706D01*
X141661585Y-109773015D01*
X141564894Y-109693663D01*
X141454580Y-109634698D01*
X141385713Y-109613807D01*
X141415534Y-109589334D01*
X141601106Y-109363214D01*
X141738999Y-109105234D01*
X141823913Y-108825311D01*
X141852585Y-108534200D01*
X141823913Y-108243089D01*
X141738999Y-107963166D01*
X141601106Y-107705186D01*
X141415534Y-107479066D01*
X141189414Y-107293494D01*
X140931434Y-107155601D01*
X140651511Y-107070687D01*
X140433350Y-107049200D01*
X140287450Y-107049200D01*
X140069289Y-107070687D01*
X139789366Y-107155601D01*
X139531386Y-107293494D01*
X139305266Y-107479066D01*
X139119694Y-107705186D01*
X139088816Y-107762956D01*
X138917988Y-107533931D01*
X138701755Y-107339022D01*
X138451652Y-107190043D01*
X138177291Y-107092719D01*
X137947400Y-107213386D01*
X137693400Y-107213386D01*
X137463509Y-107092719D01*
X137189148Y-107190043D01*
X136939045Y-107339022D01*
X136722812Y-107533931D01*
X136548759Y-107767280D01*
X136423575Y-108030101D01*
X136378924Y-108177310D01*
X135178800Y-108177310D01*
X135178800Y-106164496D01*
X137127097Y-104216200D01*
X141008777Y-104216200D01*
X141046200Y-104219886D01*
X141083623Y-104216200D01*
X141083626Y-104216200D01*
X141195578Y-104205174D01*
X141339215Y-104161602D01*
X141471592Y-104090845D01*
X141587622Y-103995622D01*
X141611484Y-103966546D01*
X141837947Y-103740083D01*
X141867022Y-103716222D01*
X141962245Y-103600192D01*
X142033002Y-103467815D01*
X142076574Y-103324178D01*
X142087600Y-103212226D01*
X142087600Y-103212224D01*
X142091286Y-103174801D01*
X142087600Y-103137378D01*
X142087600Y-101840623D01*
X142091286Y-101803200D01*
X142087454Y-101764290D01*
X142076574Y-101653822D01*
X142033002Y-101510185D01*
X141985150Y-101420660D01*
X141962245Y-101377807D01*
X141890879Y-101290848D01*
X141867022Y-101261778D01*
X141837952Y-101237921D01*
X140062084Y-99462054D01*
X140038222Y-99432978D01*
X139922192Y-99337755D01*
X139789815Y-99266998D01*
X139646178Y-99223426D01*
X139534226Y-99212400D01*
X139534223Y-99212400D01*
X139496800Y-99208714D01*
X139459377Y-99212400D01*
X135995024Y-99212400D01*
X135918205Y-99026944D01*
X135804937Y-98857426D01*
X135660774Y-98713263D01*
X135491256Y-98599995D01*
X135302898Y-98521974D01*
X135102939Y-98482200D01*
X134899061Y-98482200D01*
X134699102Y-98521974D01*
X134510744Y-98599995D01*
X134341226Y-98713263D01*
X134197063Y-98857426D01*
X134083795Y-99026944D01*
X134005774Y-99215302D01*
X133966000Y-99415261D01*
X133966000Y-99619139D01*
X134005774Y-99819098D01*
X134083795Y-100007456D01*
X134197063Y-100176974D01*
X134341226Y-100321137D01*
X134510744Y-100434405D01*
X134586324Y-100465711D01*
X134114029Y-100938007D01*
X134084959Y-100961864D01*
X134061102Y-100990934D01*
X134061101Y-100990935D01*
X133989735Y-101077894D01*
X133918979Y-101210271D01*
X133875407Y-101353908D01*
X133860694Y-101503286D01*
X133864381Y-101540719D01*
X133864380Y-102684561D01*
X132608952Y-103939990D01*
X120841821Y-103939990D01*
X120167400Y-103265570D01*
X120167400Y-103068098D01*
X120274945Y-103125582D01*
X120471251Y-103185130D01*
X120675400Y-103205237D01*
X120879549Y-103185130D01*
X121075855Y-103125582D01*
X121256769Y-103028881D01*
X121375611Y-102931350D01*
X122721814Y-101585148D01*
X122761543Y-101552543D01*
X122795466Y-101511209D01*
X122891681Y-101393970D01*
X122988382Y-101213056D01*
X122993460Y-101196316D01*
X123047931Y-101016750D01*
X123063000Y-100863752D01*
X123063000Y-100863742D01*
X123068037Y-100812601D01*
X123063000Y-100761459D01*
X123063000Y-97408561D01*
X123824562Y-96647000D01*
X125165340Y-96647000D01*
X125216481Y-96652037D01*
X125267622Y-96647000D01*
X125267633Y-96647000D01*
X125420631Y-96631931D01*
X125616935Y-96572383D01*
X125797851Y-96475681D01*
X125956424Y-96345543D01*
X125989033Y-96305809D01*
X126923800Y-95371042D01*
X126923800Y-99023769D01*
X125700249Y-100247321D01*
X125671179Y-100271178D01*
X125647322Y-100300248D01*
X125647321Y-100300249D01*
X125575955Y-100387208D01*
X125505199Y-100519585D01*
X125461627Y-100663222D01*
X125446914Y-100812600D01*
X125450601Y-100850033D01*
X125450600Y-101660289D01*
X125408663Y-101702226D01*
X125295395Y-101871744D01*
X125217374Y-102060102D01*
X125177600Y-102260061D01*
X125177600Y-102463939D01*
X125217374Y-102663898D01*
X125295395Y-102852256D01*
X125408663Y-103021774D01*
X125552826Y-103165937D01*
X125722344Y-103279205D01*
X125910702Y-103357226D01*
X126110661Y-103397000D01*
X126314539Y-103397000D01*
X126514498Y-103357226D01*
X126702856Y-103279205D01*
X126812220Y-103206131D01*
X126822826Y-103216737D01*
X126992344Y-103330005D01*
X127180702Y-103408026D01*
X127380661Y-103447800D01*
X127584539Y-103447800D01*
X127784498Y-103408026D01*
X127972856Y-103330005D01*
X128117600Y-103233290D01*
X128262344Y-103330005D01*
X128450702Y-103408026D01*
X128650661Y-103447800D01*
X128854539Y-103447800D01*
X129054498Y-103408026D01*
X129242856Y-103330005D01*
X129412374Y-103216737D01*
X129418952Y-103210159D01*
X129567904Y-103309685D01*
X129756262Y-103387706D01*
X129956221Y-103427480D01*
X130160099Y-103427480D01*
X130360058Y-103387706D01*
X130548416Y-103309685D01*
X130717934Y-103196417D01*
X130720374Y-103193977D01*
X130787104Y-103238565D01*
X130975462Y-103316586D01*
X131175421Y-103356360D01*
X131379299Y-103356360D01*
X131579258Y-103316586D01*
X131767616Y-103238565D01*
X131937134Y-103125297D01*
X132081297Y-102981134D01*
X132194565Y-102811616D01*
X132272586Y-102623258D01*
X132312360Y-102423299D01*
X132312360Y-102219421D01*
X132272586Y-102019462D01*
X132194565Y-101831104D01*
X132081297Y-101661586D01*
X131937134Y-101517423D01*
X131767616Y-101404155D01*
X131579258Y-101326134D01*
X131379299Y-101286360D01*
X131319990Y-101286360D01*
X131033520Y-100999890D01*
X131033520Y-95662151D01*
X131075457Y-95620214D01*
X131188725Y-95450696D01*
X131266746Y-95262338D01*
X131306520Y-95062379D01*
X131306520Y-94858501D01*
X131266746Y-94658542D01*
X131214833Y-94533214D01*
X131315862Y-94450302D01*
X131339724Y-94421226D01*
X135778419Y-89982532D01*
X135785595Y-89999856D01*
X135898863Y-90169374D01*
X136043026Y-90313537D01*
X136212544Y-90426805D01*
X136400902Y-90504826D01*
X136600861Y-90544600D01*
X136804739Y-90544600D01*
X137004698Y-90504826D01*
X137193056Y-90426805D01*
X137362574Y-90313537D01*
X137404511Y-90271600D01*
X138062377Y-90271600D01*
X138099800Y-90275286D01*
X138137223Y-90271600D01*
X138137226Y-90271600D01*
X138249178Y-90260574D01*
X138392815Y-90217002D01*
X138525192Y-90146245D01*
X138641222Y-90051022D01*
X138665084Y-90021946D01*
X142066101Y-86620929D01*
X142080859Y-86633040D01*
X141996528Y-86702248D01*
X141832825Y-86901722D01*
X141711182Y-87129299D01*
X141636275Y-87376235D01*
X141610982Y-87633040D01*
X141636275Y-87889845D01*
X141711182Y-88136781D01*
X141832825Y-88364358D01*
X141996528Y-88563832D01*
X142080859Y-88633040D01*
X141996528Y-88702248D01*
X141832825Y-88901722D01*
X141711182Y-89129299D01*
X141636275Y-89376235D01*
X141610982Y-89633040D01*
X141636275Y-89889845D01*
X141711182Y-90136781D01*
X141832825Y-90364358D01*
X141996528Y-90563832D01*
X142080859Y-90633040D01*
X141996528Y-90702248D01*
X141832825Y-90901722D01*
X141711182Y-91129299D01*
X141636275Y-91376235D01*
X141610982Y-91633040D01*
X141636275Y-91889845D01*
X141711182Y-92136781D01*
X141832825Y-92364358D01*
X141996528Y-92563832D01*
X142196002Y-92727535D01*
X142423579Y-92849178D01*
X142670515Y-92924085D01*
X142862969Y-92943040D01*
X142991671Y-92943040D01*
X143184125Y-92924085D01*
X143431061Y-92849178D01*
X143658638Y-92727535D01*
X143728246Y-92670409D01*
X143801135Y-92759225D01*
X143897826Y-92838577D01*
X144008140Y-92897542D01*
X144127838Y-92933852D01*
X144252320Y-92946112D01*
X145602320Y-92946112D01*
X145726802Y-92933852D01*
X145846500Y-92897542D01*
X145956814Y-92838577D01*
X146053505Y-92759225D01*
X146132857Y-92662534D01*
X146191822Y-92552220D01*
X146228132Y-92432522D01*
X146240392Y-92308040D01*
X146240392Y-90958040D01*
X146228132Y-90833558D01*
X146191822Y-90713860D01*
X146132857Y-90603546D01*
X146053505Y-90506855D01*
X145964689Y-90433966D01*
X146021815Y-90364358D01*
X146143458Y-90136781D01*
X146218365Y-89889845D01*
X146243658Y-89633040D01*
X146218365Y-89376235D01*
X146143458Y-89129299D01*
X146021815Y-88901722D01*
X145858112Y-88702248D01*
X145773781Y-88633040D01*
X145858112Y-88563832D01*
X146021815Y-88364358D01*
X146143458Y-88136781D01*
X146218365Y-87889845D01*
X146243658Y-87633040D01*
X146218365Y-87376235D01*
X146143458Y-87129299D01*
X146021815Y-86901722D01*
X145858112Y-86702248D01*
X145773781Y-86633040D01*
X145858112Y-86563832D01*
X146021815Y-86364358D01*
X146143458Y-86136781D01*
X146218365Y-85889845D01*
X146243658Y-85633040D01*
X146218365Y-85376235D01*
X146143458Y-85129299D01*
X146021815Y-84901722D01*
X145858112Y-84702248D01*
X145658638Y-84538545D01*
X145431061Y-84416902D01*
X145184125Y-84341995D01*
X145084581Y-84332191D01*
X144662390Y-83910000D01*
X148590001Y-83910000D01*
X148590000Y-103032418D01*
M02*
